<svg width="40" height="40" viewBox="0 0 40 40" fill="none" xmlns="http://www.w3.org/2000/svg">
<path fill-rule="evenodd" clip-rule="evenodd" d="M6.49339 33.4206C7.60842 34.653 9.06729 35.2941 10.5322 35.2941H17.8041V31.8446H9.10683V5.9251H17.9942L13.8687 11.3653V27.3653H17.8041V11.4648H24.7866V15.6246H22.2477V22.3441L24.7866 20.1039V24.2306L26.892 22.1078V8.6688L24.6701 6.42855H31.6539L30.0662 8.6688V22.1078L32.9233 24.348H24.7866V24.9039H22.2477V27.3653H25.9304L28.7875 25.1251V31.8446H22.2477V34.5039L22.9442 35.2941H29.4678C30.9327 35.2941 32.3916 34.653 33.5066 33.4206C34.6287 32.1804 35.2941 30.4522 35.2941 28.6068V11.3932C35.2941 9.54783 34.6287 7.8196 33.5066 6.57939C32.3916 5.34699 30.9327 4.70588 29.4678 4.70588H10.5322C9.06729 4.70588 7.60842 5.34699 6.49339 6.57939C5.37129 7.8196 4.70588 9.54783 4.70588 11.3932V28.6068C4.70588 30.4522 5.37129 32.1804 6.49339 33.4206ZM10.5322 40C7.65858 40 4.9566 38.7362 3.00381 36.5779C1.05808 34.4273 0 31.5567 0 28.6068V11.3932C0 8.44331 1.05808 5.57269 3.00381 3.42215C4.9566 1.26381 7.65858 0 10.5322 0H29.4678C32.3414 0 35.0434 1.26381 36.9962 3.42215C38.9419 5.57269 40 8.44331 40 11.3932V28.6068C40 31.5567 38.9419 34.4273 36.9962 36.5779C35.0434 38.7362 32.3414 40 29.4678 40H10.5322Z" fill="#F3A508"/>
</svg>
