<svg width="81" height="80" viewBox="0 0 81 80" fill="none" xmlns="http://www.w3.org/2000/svg">
<path fill-rule="evenodd" clip-rule="evenodd" d="M13.3201 66.8412C15.5501 69.306 18.4679 70.5882 21.3977 70.5882H35.9416V63.6892H18.547V11.8502H36.3218L28.0708 22.7307V54.7307H35.9416V22.9297H49.9065V31.2492H44.8287V44.6882L49.9065 40.2077V48.4612L54.1172 44.2156V17.3376L49.6735 12.8571H63.641L60.4657 17.3376V44.2156L66.18 48.6961H49.9065V49.8077H44.8287V54.7307H52.194L57.9083 50.2502V63.6892H44.8287V69.0077L46.2218 70.5882H59.2689C62.1987 70.5882 65.1165 69.306 67.3465 66.8412C69.5907 64.3608 70.9216 60.9043 70.9216 57.2136V22.7864C70.9216 19.0957 69.5907 15.6392 67.3465 13.1588C65.1165 10.694 62.1987 9.41177 59.2689 9.41177H21.3977C18.4679 9.41177 15.5501 10.694 13.3201 13.1588C11.0759 15.6392 9.74508 19.0957 9.74508 22.7864V57.2136C9.74508 60.9043 11.0759 64.3608 13.3201 66.8412ZM21.3977 80C15.6505 80 10.2465 77.4724 6.34093 73.1557C2.44947 68.8546 0.333313 63.1134 0.333313 57.2136V22.7864C0.333313 16.8866 2.44947 11.1454 6.34093 6.8443C10.2465 2.52761 15.6505 0 21.3977 0H59.2689C65.0162 0 70.4201 2.52761 74.3257 6.8443C78.2172 11.1454 80.3333 16.8866 80.3333 22.7864V57.2136C80.3333 63.1134 78.2172 68.8546 74.3257 73.1557C70.4201 77.4724 65.0162 80 59.2689 80H21.3977Z" fill="#F3A508"/>
</svg>
