<svg width="18" height="18" viewBox="0 0 18 18" fill="none" xmlns="http://www.w3.org/2000/svg">
<path d="M10.2464 16.0344L9.42062 16.8602C9.07096 17.2098 8.50554 17.2098 8.1596 16.8602L0.928263 9.63253C0.5786 9.28287 0.5786 8.71746 0.928263 8.37151L8.1596 1.14018C8.50926 0.790514 9.07468 0.790514 9.42062 1.14018L10.2464 1.96598C10.5998 2.31936 10.5924 2.89593 10.2315 3.24188L5.74916 7.51224H16.4399C16.9347 7.51224 17.3327 7.91026 17.3327 8.40499V9.59534C17.3327 10.0901 16.9347 10.4881 16.4399 10.4881H5.74916L10.2315 14.7585C10.5961 15.1044 10.6035 15.681 10.2464 16.0344Z" fill="white"/>
</svg>
