<svg width="34" height="34" viewBox="0 0 34 34" fill="none" xmlns="http://www.w3.org/2000/svg">
<path d="M10.5266 14.3404L17.0002 7.86674L23.4768 14.3432L27.2435 10.5765L17.0002 0.333374L6.76016 10.5734L10.5267 14.3401L10.5266 14.3404ZM0.333496 17.0001L4.1003 13.2328L7.86683 16.9993L4.10003 20.7661L0.333496 17.0001ZM10.5266 19.6602L17.0002 26.1335L23.4767 19.6572L27.2454 23.4219L27.2435 23.4239L17.0002 33.6668L6.76016 23.4268L6.75483 23.4215L10.527 19.6598L10.5266 19.6602ZM26.1335 17.0017L29.9003 13.2349L33.6668 17.0014L29.9002 20.7683L26.1335 17.0017Z" fill="#F3BA2F"/>
<path d="M20.8202 16.9981H20.8218L16.9999 13.1759L14.175 16.0001L13.8504 16.3248L13.1811 16.9943L13.1758 16.9995L13.1811 17.0049L16.9999 20.8244L20.822 17.0021L20.8239 17L20.8204 16.9981" fill="#F3BA2F"/>
</svg>
