<svg width="14" height="15" viewBox="0 0 14 15" fill="none" xmlns="http://www.w3.org/2000/svg">
<path d="M11.0104 1.66666H2.98958C2.40625 1.66666 1.89583 2.17707 1.89583 2.76041V12.2396C1.89583 12.8229 2.40625 13.3333 2.98958 13.3333H11.0104C11.5937 13.3333 12.1042 12.8229 12.1042 12.2396V2.76041C12.1042 2.17707 11.5937 1.66666 11.0104 1.66666ZM4.8125 11.5833C4.8125 11.7292 4.66667 11.875 4.52083 11.875H3.64583C3.5 11.875 3.35417 11.7292 3.35417 11.5833V10.7083C3.35417 10.5625 3.5 10.4167 3.64583 10.4167H4.52083C4.66667 10.4167 4.8125 10.5625 4.8125 10.7083V11.5833ZM4.8125 8.66666C4.8125 8.81249 4.66667 8.95832 4.52083 8.95832H3.64583C3.5 8.95832 3.35417 8.81249 3.35417 8.66666V7.79166C3.35417 7.64582 3.5 7.49999 3.64583 7.49999H4.52083C4.66667 7.49999 4.8125 7.64582 4.8125 7.79166V8.66666ZM7.72917 11.5833C7.72917 11.7292 7.58333 11.875 7.4375 11.875H6.5625C6.41667 11.875 6.27083 11.7292 6.27083 11.5833V10.7083C6.27083 10.5625 6.41667 10.4167 6.5625 10.4167H7.4375C7.58333 10.4167 7.72917 10.5625 7.72917 10.7083V11.5833ZM7.72917 8.66666C7.72917 8.81249 7.58333 8.95832 7.4375 8.95832H6.5625C6.41667 8.95832 6.27083 8.81249 6.27083 8.66666V7.79166C6.27083 7.64582 6.41667 7.49999 6.5625 7.49999H7.4375C7.58333 7.49999 7.72917 7.64582 7.72917 7.79166V8.66666ZM10.6458 11.5833C10.6458 11.7292 10.5 11.875 10.3542 11.875H9.47916C9.33333 11.875 9.1875 11.7292 9.1875 11.5833V7.79166C9.1875 7.64582 9.33333 7.49999 9.47916 7.49999H10.3542C10.5 7.49999 10.6458 7.64582 10.6458 7.79166V11.5833ZM10.6458 5.74999C10.6458 5.89582 10.5 6.04166 10.3542 6.04166H3.64583C3.5 6.04166 3.35417 5.89582 3.35417 5.74999V3.41666C3.35417 3.27082 3.5 3.12499 3.64583 3.12499H10.3542C10.5 3.12499 10.6458 3.27082 10.6458 3.41666V5.74999Z" fill="#B7BECB"/>
</svg>
