<svg width="24" height="25" viewBox="0 0 24 25" fill="none" xmlns="http://www.w3.org/2000/svg">
<path d="M10.9012 7.33609L11.7495 7.2059V6.34766V5V4H10.7495H10.187V3.5H13.812V4H13.2495H12.2495V5V6.34766V7.20488L13.0967 7.33591C14.3801 7.53442 15.5505 8.07502 16.5093 8.86257L17.21 9.43812L17.8511 8.79695L18.5503 8.09781L18.9056 8.45312L18.1322 9.22649L18.1088 9.24992L17.5342 9.82455L17.9791 10.5046C18.703 11.6109 19.1245 12.9408 19.1245 14.375C19.1245 18.311 15.9355 21.5 11.9995 21.5C8.06352 21.5 4.87451 18.311 4.87451 14.375C4.87451 10.8129 7.48799 7.85988 10.9012 7.33609ZM18.1752 7.72273L18.1756 7.72316C18.1755 7.72301 18.1754 7.72287 18.1752 7.72273L18.5503 7.34766L18.1752 7.72273ZM14.2495 15.7812V9.86328C14.2495 9.05318 13.5909 8.39453 12.7808 8.39453H11.2183C10.4082 8.39453 9.74951 9.05318 9.74951 9.86328V15.7812C9.74951 16.5913 10.4082 17.25 11.2183 17.25H12.7808C13.5909 17.25 14.2495 16.5913 14.2495 15.7812Z" stroke="#B7BECB" stroke-width="2"/>
</svg>
