<svg width="20" height="18" viewBox="0 0 20 18" fill="none" xmlns="http://www.w3.org/2000/svg">
<path d="M19.5117 5.59952L14.5118 0.600641C13.4696 -0.441511 11.6667 0.288315 11.6667 1.77911V3.76515C10.1927 3.83043 8.74895 3.99258 7.47361 4.3898C6.25243 4.77001 5.28368 5.34744 4.59479 6.10577C3.75764 7.02799 3.33333 8.18772 3.33333 9.55369C3.33333 11.6959 4.48534 13.4584 6.2802 14.5801C7.58388 15.3963 9.2402 14.1408 8.74617 12.6447C8.20746 11.0086 8.15048 10.1821 11.6667 9.90994V11.778C11.6667 13.2708 13.4711 13.9972 14.5118 12.9565L19.5117 7.95647C20.1628 7.30577 20.1628 6.25022 19.5117 5.59952ZM13.3333 11.778V8.17244C8.86489 8.23917 5.78097 8.97764 7.16354 13.1669C6.13854 12.5263 5 11.3641 5 9.55369C5 5.75737 9.48402 5.42359 13.3333 5.39223V1.778L18.3333 6.77799L13.3333 11.778ZM14.1924 14.7118C14.4489 14.6385 14.6941 14.5298 14.9206 14.3888C15.1976 14.2168 15.5555 14.4174 15.5555 14.7434V16.2224C15.5555 17.1429 14.8094 17.8891 13.8889 17.8891H1.66667C0.74618 17.8891 0 17.1429 0 16.2224V4.00022C0 3.07974 0.74618 2.33356 1.66667 2.33356H6.25C6.4801 2.33356 6.66666 2.52012 6.66666 2.75022V2.90599C6.66666 3.07671 6.56295 3.2313 6.40385 3.29321C5.92809 3.47831 5.48732 3.6938 5.08267 3.93852C5.01698 3.97861 4.94157 3.99995 4.86461 4.00022H1.875C1.81975 4.00022 1.76675 4.02217 1.72768 4.06124C1.68861 4.10031 1.66667 4.1533 1.66667 4.20855V16.0141C1.66667 16.0693 1.68861 16.1223 1.72768 16.1614C1.76675 16.2005 1.81975 16.2224 1.875 16.2224H13.6805C13.7358 16.2224 13.7888 16.2005 13.8279 16.1614C13.8669 16.1223 13.8889 16.0693 13.8889 16.0141V15.1125C13.8889 14.926 14.0131 14.7632 14.1924 14.7118Z" fill="#B7BECB"/>
</svg>
