<svg width="33" height="32" viewBox="0 0 33 32" fill="none" xmlns="http://www.w3.org/2000/svg">
<path d="M16.5 29.3333C23.8638 29.3333 29.8333 23.3638 29.8333 16C29.8333 8.63616 23.8638 2.66663 16.5 2.66663C9.13621 2.66663 3.16667 8.63616 3.16667 16C3.16667 23.3638 9.13621 29.3333 16.5 29.3333Z" stroke="#B7BECB" stroke-width="1.5" stroke-linecap="round" stroke-linejoin="round"/>
<path d="M11.1667 4H12.5C9.89999 11.7867 9.89999 20.2133 12.5 28H11.1667" stroke="#B7BECB" stroke-width="1.5" stroke-linecap="round" stroke-linejoin="round"/>
<path d="M20.5 4C23.1 11.7867 23.1 20.2133 20.5 28" stroke="#B7BECB" stroke-width="1.5" stroke-linecap="round" stroke-linejoin="round"/>
<path d="M4.5 21.3333V20C12.2867 22.6 20.7133 22.6 28.5 20V21.3333" stroke="#B7BECB" stroke-width="1.5" stroke-linecap="round" stroke-linejoin="round"/>
<path d="M4.5 12C12.2867 9.40005 20.7133 9.40005 28.5 12" stroke="#B7BECB" stroke-width="1.5" stroke-linecap="round" stroke-linejoin="round"/>
</svg>
