<svg width="20" height="21" viewBox="0 0 20 21" fill="none" xmlns="http://www.w3.org/2000/svg">
<path fill-rule="evenodd" clip-rule="evenodd" d="M10 20.5C15.5228 20.5 20 16.0229 20 10.5C20 4.97718 15.5228 0.500031 10 0.500031C4.47715 0.500031 0 4.97718 0 10.5C0 16.0229 4.47715 20.5 10 20.5ZM7.49382 14.5485C7.10605 14.5485 6.71988 14.3788 6.42472 14.0525C6.1277 13.7243 5.95156 13.2668 5.95156 12.7783V8.22176C5.95156 7.73328 6.1277 7.27581 6.42472 6.94752C6.71988 6.62129 7.10605 6.45159 7.49382 6.45159H12.5062C12.894 6.45159 13.2801 6.62129 13.5753 6.94752C13.8723 7.27581 14.0484 7.73328 14.0484 8.22176V12.7783C14.0484 13.2668 13.8723 13.7243 13.5753 14.0525C13.2801 14.3788 12.894 14.5485 12.5062 14.5485H10.7794L10.595 14.3393V13.6354H12.3261V11.8567L11.5698 12.4497H10.595V11.7981H11.267V11.651H13.4209L12.6646 11.058V7.5006L13.0848 6.90759H11.2362L11.8243 7.5006V11.058L11.267 11.6199V10.5275L10.595 11.1205V9.34184H11.267V8.24073H9.41876V12.4497H8.37704V8.21438L9.46908 6.77431H7.11654V13.6354H9.41876V14.5485H7.49382ZM5.50101 14.8883C6.01792 15.4596 6.73315 15.7941 7.49382 15.7941H12.5062C13.2668 15.7941 13.9821 15.4596 14.499 14.8883C15.014 14.319 15.2941 13.5592 15.2941 12.7783V8.22176C15.2941 7.44091 15.014 6.68104 14.499 6.11178C13.9821 5.54045 13.2668 5.20591 12.5062 5.20591H7.49382C6.73315 5.20591 6.01792 5.54045 5.50101 6.11178C4.98596 6.68104 4.70588 7.44091 4.70588 8.22176V12.7783C4.70588 13.5592 4.98596 14.319 5.50101 14.8883Z" fill="#F3A508"/>
</svg>
