<svg width="37" height="36" viewBox="0 0 37 36" fill="none" xmlns="http://www.w3.org/2000/svg">
<path fill-rule="evenodd" clip-rule="evenodd" d="M18.166 36C28.1071 36 36.166 27.9411 36.166 18C36.166 8.05887 28.1071 0 18.166 0C8.22489 0 0.166016 8.05887 0.166016 18C0.166016 27.9411 8.22489 36 18.166 36ZM13.6549 25.2872C12.9569 25.2872 12.2618 24.9817 11.7305 24.3945C11.1959 23.8036 10.8788 22.9802 10.8788 22.1009V13.8991C10.8788 13.0198 11.1959 12.1964 11.7305 11.6055C12.2618 11.0183 12.9569 10.7128 13.6549 10.7128H22.6771C23.3751 10.7128 24.0702 11.0183 24.6015 11.6055C25.1362 12.1964 25.4532 13.0198 25.4532 13.8991V22.1009C25.4532 22.9802 25.1362 23.8036 24.6015 24.3945C24.0702 24.9817 23.3751 25.2872 22.6771 25.2872H19.5689L19.237 24.9107V23.6436H22.353V20.442L20.9917 21.5094H19.237V20.3365H20.4467V20.0717H24.3236L22.9623 19.0043V12.601L23.7187 11.5336H20.3912L21.4498 12.601V19.0043L20.4467 20.0158V18.0495L19.237 19.1169V15.9152H20.4467V13.9332H17.1198V21.5094H15.2446V13.8858L17.2103 11.2937H12.9757V23.6436H17.1198V25.2872H13.6549ZM10.0678 25.8989C10.9983 26.9272 12.2857 27.5294 13.6549 27.5294H22.6771C24.0463 27.5294 25.3338 26.9272 26.2642 25.8989C27.1913 24.8742 27.6954 23.5064 27.6954 22.1009V13.8991C27.6954 12.4936 27.1913 11.1258 26.2642 10.1011C25.3338 9.07275 24.0463 8.47059 22.6771 8.47059H13.6549C12.2857 8.47059 10.9983 9.07275 10.0678 10.1011C9.14075 11.1258 8.6366 12.4936 8.6366 13.8991V22.1009C8.6366 23.5064 9.14075 24.8742 10.0678 25.8989Z" fill="#F3A508"/>
</svg>
