<svg width="25" height="24" viewBox="0 0 25 24" fill="none" xmlns="http://www.w3.org/2000/svg">
<path d="M7.14347 21.9996H2.99704V8.64687H7.14347V21.9996ZM5.06803 6.82545C3.74213 6.82545 2.66669 5.72723 2.66669 4.40134C2.66669 3.76446 2.91968 3.15367 3.37002 2.70334C3.82036 2.253 4.43115 2 5.06803 2C5.7049 2 6.31569 2.253 6.76603 2.70334C7.21637 3.15367 7.46937 3.76446 7.46937 4.40134C7.46937 5.72723 6.39347 6.82545 5.06803 6.82545ZM22.6622 21.9996H18.5247V15.4996C18.5247 13.9504 18.4935 11.9638 16.3689 11.9638C14.2131 11.9638 13.8828 13.6469 13.8828 15.3879V21.9996H9.74079V8.64687H13.7176V10.4683H13.7756C14.3292 9.4192 15.6814 8.31205 17.6988 8.31205C21.8953 8.31205 22.6667 11.0754 22.6667 14.6647V21.9996H22.6622Z" fill="#7C8497"/>
</svg>
