<svg width="50" height="50" viewBox="0 0 50 50" fill="none" xmlns="http://www.w3.org/2000/svg">
<path fill-rule="evenodd" clip-rule="evenodd" d="M8.11673 41.7758C9.51052 43.3163 11.3341 44.1176 13.1653 44.1176H22.2552V39.8058H11.3835V7.40637H22.4928L17.3359 14.2067V34.2067H22.2552V14.3311H30.9832V19.5307H27.8096V27.9301L30.9832 25.1298V30.2883L33.6149 27.6348V10.836L30.8376 8.03568H39.5673L37.5827 10.836V27.6348L41.1542 30.4351H30.9832V31.1298H27.8096V34.2067H32.413L35.9844 31.4064V39.8058H27.8096V43.1298L28.6803 44.1176H36.8347C38.6659 44.1176 40.4895 43.3163 41.8833 41.7758C43.2859 40.2255 44.1177 38.0652 44.1177 35.7585V14.2415C44.1177 11.9348 43.2859 9.7745 41.8833 8.22424C40.4895 6.68373 38.6659 5.88235 36.8347 5.88235H13.1653C11.3341 5.88235 9.51052 6.68373 8.11673 8.22424C6.71412 9.7745 5.88235 11.9348 5.88235 14.2415V35.7585C5.88235 38.0652 6.71412 40.2255 8.11673 41.7758ZM13.1653 50C9.57323 50 6.19575 48.4203 3.75476 45.7223C1.3226 43.0341 0 39.4459 0 35.7585V14.2415C0 10.5541 1.3226 6.96587 3.75476 4.27769C6.19575 1.57976 9.57322 0 13.1653 0H36.8347C40.4268 0 43.8043 1.57976 46.2452 4.27769C48.6774 6.96587 50 10.5541 50 14.2415V35.7585C50 39.4459 48.6774 43.0341 46.2452 45.7223C43.8043 48.4203 40.4268 50 36.8347 50H13.1653Z" fill="#F3A508"/>
</svg>
