<svg width="25" height="24" viewBox="0 0 25 24" fill="none" xmlns="http://www.w3.org/2000/svg">
<path fill-rule="evenodd" clip-rule="evenodd" d="M5.5 14V14C4.395 14 3.5 13.105 3.5 12V12C3.5 10.895 4.395 10 5.5 10V10C6.605 10 7.5 10.895 7.5 12V12C7.5 13.105 6.605 14 5.5 14Z" stroke="white" stroke-width="1.5" stroke-linecap="round" stroke-linejoin="round"/>
<path fill-rule="evenodd" clip-rule="evenodd" d="M12.5 14V14C11.395 14 10.5 13.105 10.5 12V12C10.5 10.895 11.395 10 12.5 10V10C13.605 10 14.5 10.895 14.5 12V12C14.5 13.105 13.605 14 12.5 14Z" stroke="white" stroke-width="1.5" stroke-linecap="round" stroke-linejoin="round"/>
<path fill-rule="evenodd" clip-rule="evenodd" d="M19.5 14V14C18.395 14 17.5 13.105 17.5 12V12C17.5 10.895 18.395 10 19.5 10V10C20.605 10 21.5 10.895 21.5 12V12C21.5 13.105 20.605 14 19.5 14Z" stroke="white" stroke-width="1.5" stroke-linecap="round" stroke-linejoin="round"/>
<path fill-rule="evenodd" clip-rule="evenodd" d="M5.5 21V21C4.395 21 3.5 20.105 3.5 19V19C3.5 17.895 4.395 17 5.5 17V17C6.605 17 7.5 17.895 7.5 19V19C7.5 20.105 6.605 21 5.5 21Z" stroke="white" stroke-width="1.5" stroke-linecap="round" stroke-linejoin="round"/>
<path fill-rule="evenodd" clip-rule="evenodd" d="M12.5 21V21C11.395 21 10.5 20.105 10.5 19V19C10.5 17.895 11.395 17 12.5 17V17C13.605 17 14.5 17.895 14.5 19V19C14.5 20.105 13.605 21 12.5 21Z" stroke="white" stroke-width="1.5" stroke-linecap="round" stroke-linejoin="round"/>
<path fill-rule="evenodd" clip-rule="evenodd" d="M19.5 21V21C18.395 21 17.5 20.105 17.5 19V19C17.5 17.895 18.395 17 19.5 17V17C20.605 17 21.5 17.895 21.5 19V19C21.5 20.105 20.605 21 19.5 21Z" stroke="white" stroke-width="1.5" stroke-linecap="round" stroke-linejoin="round"/>
<path fill-rule="evenodd" clip-rule="evenodd" d="M5.5 7V7C4.395 7 3.5 6.105 3.5 5V5C3.5 3.895 4.395 3 5.5 3V3C6.605 3 7.5 3.895 7.5 5V5C7.5 6.105 6.605 7 5.5 7Z" stroke="white" stroke-width="1.5" stroke-linecap="round" stroke-linejoin="round"/>
<path fill-rule="evenodd" clip-rule="evenodd" d="M12.5 7V7C11.395 7 10.5 6.105 10.5 5V5C10.5 3.895 11.395 3 12.5 3V3C13.605 3 14.5 3.895 14.5 5V5C14.5 6.105 13.605 7 12.5 7Z" stroke="white" stroke-width="1.5" stroke-linecap="round" stroke-linejoin="round"/>
<path fill-rule="evenodd" clip-rule="evenodd" d="M19.5 7V7C18.395 7 17.5 6.105 17.5 5V5C17.5 3.895 18.395 3 19.5 3V3C20.605 3 21.5 3.895 21.5 5V5C21.5 6.105 20.605 7 19.5 7Z" stroke="white" stroke-width="1.5" stroke-linecap="round" stroke-linejoin="round"/>
</svg>
