<svg width="40" height="40" viewBox="0 0 40 40" fill="none" xmlns="http://www.w3.org/2000/svg">
<path d="M35.017 26.4182L32.9964 32.9877L29.0298 31.9446L35.017 26.4182Z" fill="#E4761B" stroke="#E4761B" stroke-width="0.190386"/>
<path d="M29.0298 31.9446L32.8556 26.904L35.017 26.4182L29.0298 31.9446Z" fill="#E4761B" stroke="#E4761B" stroke-width="0.190386"/>
<path d="M32.0439 21.4652L35.0168 26.4183L32.8555 26.904L32.0439 21.4652ZM32.0439 21.4652L33.9569 20.1912L35.0168 26.4183L32.0439 21.4652Z" fill="#F6851B" stroke="#F6851B" stroke-width="0.190386"/>
<path d="M29.6094 17.7226L35.108 15.5566L34.8347 16.7431L29.6094 17.7226ZM34.6608 18.1685L29.6094 17.7226L34.8347 16.7431L34.6608 18.1685Z" fill="#763D16" stroke="#763D16" stroke-width="0.190386"/>
<path d="M34.6608 18.1685L33.9569 20.1911L29.6094 17.7226L34.6608 18.1685ZM35.7622 16.0583L34.8347 16.7431L35.108 15.5566L35.7622 16.0583ZM34.6608 18.1685L34.8347 16.7431L35.5717 17.3324L34.6608 18.1685Z" fill="#763D16" stroke="#763D16" stroke-width="0.190386"/>
<path d="M24.7651 30.344L26.1398 30.766L29.0299 31.9446L24.7651 30.344Z" fill="#E2761B" stroke="#E2761B" stroke-width="0.190386"/>
<path d="M33.9571 20.1912L34.661 18.1686L35.2655 18.6145L33.9571 20.1912ZM33.9571 20.1912L28.2515 18.3836L29.6096 17.7227L33.9571 20.1912Z" fill="#763D16" stroke="#763D16" stroke-width="0.190386"/>
<path d="M30.9676 11.5194L29.6096 17.7226L28.2515 18.3836L30.9676 11.5194Z" fill="#763D16" stroke="#763D16" stroke-width="0.190386"/>
<path d="M35.108 15.5567L29.6094 17.7226L30.9675 11.5194L35.108 15.5567Z" fill="#763D16" stroke="#763D16" stroke-width="0.190386"/>
<path d="M30.9678 11.5194L36.7065 10.8823L35.1083 15.5566L30.9678 11.5194Z" fill="#763D16" stroke="#763D16" stroke-width="0.190386"/>
<path d="M33.9571 20.1912L32.0442 21.4652L28.2515 18.3835L33.9571 20.1912Z" fill="#F6851B" stroke="#F6851B" stroke-width="0.190386"/>
<path d="M36.4581 6.41504L36.7065 10.8823L30.9678 11.5194L36.4581 6.41504Z" fill="#763D16" stroke="#763D16" stroke-width="0.190386"/>
<path d="M36.4581 6.41504L24.9889 14.4338L24.8398 8.99507L36.4581 6.41504Z" fill="#E2761B" stroke="#E2761B" stroke-width="0.190386"/>
<path d="M16.3105 8.34216L24.84 8.99513L24.9891 14.4339L16.3105 8.34216Z" fill="#F6851B" stroke="#F6851B" stroke-width="0.190386"/>
<path d="M28.2515 18.3836L24.9888 14.4339L30.9677 11.5194L28.2515 18.3836Z" fill="#763D16" stroke="#763D16" stroke-width="0.190386"/>
<path d="M28.2512 18.3835L32.0439 21.4652L26.7192 22.0306L28.2512 18.3835Z" fill="#E4761B" stroke="#E4761B" stroke-width="0.190386"/>
<path d="M26.7195 22.0306L24.9888 14.4338L28.2515 18.3835L26.7195 22.0306Z" fill="#E4761B" stroke="#E4761B" stroke-width="0.190386"/>
<path d="M30.9677 11.5194L24.9888 14.4338L36.458 6.41504L30.9677 11.5194Z" fill="#763D16" stroke="#763D16" stroke-width="0.190386"/>
<path d="M16.3849 31.8173L19.0928 34.5327L15.4077 31.3076L16.3849 31.8173Z" fill="#C0AD9E" stroke="#C0AD9E" stroke-width="0.190386"/>
<path d="M29.0298 31.9447L30.3133 27.2544L32.8556 26.9041L29.0298 31.9447Z" fill="#CD6116" stroke="#CD6116" stroke-width="0.190386"/>
<path d="M5.40381 18.7499L10.0909 14.0118L6.00832 18.1845L5.40381 18.7499Z" fill="#E2761B" stroke="#E2761B" stroke-width="0.190386"/>
<path d="M32.8561 26.904L30.3138 27.2544L32.0445 21.4653L32.8561 26.904ZM24.9891 14.4339L20.4262 14.2906L16.3105 8.34216L24.9891 14.4339Z" fill="#F6851B" stroke="#F6851B" stroke-width="0.190386"/>
<path d="M32.0444 21.4652L30.3136 27.2543L30.1729 24.4275L32.0444 21.4652Z" fill="#E4751F" stroke="#E4751F" stroke-width="0.190386"/>
<path d="M26.7192 22.0306L32.0439 21.4652L30.1724 24.4275L26.7192 22.0306Z" fill="#CD6116" stroke="#CD6116" stroke-width="0.190386"/>
<path d="M20.4258 14.2905L24.9886 14.4339L26.7194 22.0306L20.4258 14.2905Z" fill="#F6851B" stroke="#F6851B" stroke-width="0.190386"/>
<path d="M20.4259 14.2905L8.11197 3.33337L16.3102 8.34213L20.4259 14.2905ZM16.3019 33.4815L5.60282 36.6667L3.46631 28.8231L16.3019 33.4815Z" fill="#E4761B" stroke="#E4761B" stroke-width="0.190386"/>
<path d="M6.99414 20.7088L11.0353 17.6589L14.4222 18.4154L6.99414 20.7088Z" fill="#763D16" stroke="#763D16" stroke-width="0.190386"/>
<path d="M14.4221 18.4154L11.0352 17.6589L12.8487 10.4603L14.4221 18.4154Z" fill="#763D16" stroke="#763D16" stroke-width="0.190386"/>
<path d="M6.0083 18.1845L11.0349 17.6589L6.99374 20.7088L6.0083 18.1845Z" fill="#763D16" stroke="#763D16" stroke-width="0.190386"/>
<path d="M30.1724 24.4275L28.0856 23.4162L26.7192 22.0306L30.1724 24.4275Z" fill="#CD6116" stroke="#CD6116" stroke-width="0.190386"/>
<path d="M6.00843 18.1844L5.65234 16.3768L11.035 17.6589L6.00843 18.1844Z" fill="#763D16" stroke="#763D16" stroke-width="0.190386"/>
<path d="M27.6553 25.6936L28.0859 23.4161L30.1727 24.4274L27.6553 25.6936Z" fill="#233447" stroke="#233447" stroke-width="0.190386"/>
<path d="M30.3135 27.2544L27.6553 25.6936L30.1727 24.4275L30.3135 27.2544Z" fill="#F6851B" stroke="#F6851B" stroke-width="0.190386"/>
<path d="M11.035 17.6589L5.65227 16.3769L5.21338 14.8559L11.035 17.6589ZM12.8485 10.4603L11.035 17.6589L5.21338 14.8559L12.8485 10.4603ZM12.8485 10.4603L20.4257 14.2906L14.4219 18.4154L12.8485 10.4603Z" fill="#763D16" stroke="#763D16" stroke-width="0.190386"/>
<path d="M14.4219 18.4154L20.4256 14.2905L23.1004 22.1501L14.4219 18.4154ZM23.1004 22.1501L14.8028 21.9828L14.4219 18.4154L23.1004 22.1501Z" fill="#E4761B" stroke="#E4761B" stroke-width="0.190386"/>
<path d="M6.99414 20.7087L14.4222 18.4154L14.8032 21.9828L6.99414 20.7087ZM26.7196 22.0306L23.1008 22.1501L20.426 14.2905L26.7196 22.0306Z" fill="#F6851B" stroke="#F6851B" stroke-width="0.190386"/>
<path d="M28.0856 23.4162L27.655 25.6937L26.7192 22.0306L28.0856 23.4162Z" fill="#CD6116" stroke="#CD6116" stroke-width="0.190386"/>
<path d="M8.1123 3.33337L20.4262 14.2905L12.8491 10.4603L8.1123 3.33337Z" fill="#763D16" stroke="#763D16" stroke-width="0.190386"/>
<path d="M3.46631 28.8231L13.8507 28.4091L16.3019 33.4815L3.46631 28.8231Z" fill="#E4761B" stroke="#E4761B" stroke-width="0.190386"/>
<path d="M16.3018 33.4815L13.8506 28.4091L18.9517 28.1702L16.3018 33.4815Z" fill="#CD6116" stroke="#CD6116" stroke-width="0.190386"/>
<path d="M27.6552 25.6936L30.3135 27.2544L31.7792 30.575L27.6552 25.6936ZM14.8031 21.9828L3.46631 28.8231L6.99403 20.7087L14.8031 21.9828ZM13.8507 28.409L3.46631 28.8231L14.8031 21.9828L13.8507 28.409ZM26.7195 22.0306L27.3985 24.4036L24.1192 24.5867L26.7195 22.0306ZM24.1192 24.5867L23.1007 22.1501L26.7195 22.0306L24.1192 24.5867Z" fill="#F6851B" stroke="#F6851B" stroke-width="0.190386"/>
<path d="M19.0925 34.5326L16.3018 33.4814L26.0071 35.0502L19.0925 34.5326Z" fill="#C0AD9E" stroke="#C0AD9E" stroke-width="0.190386"/>
<path d="M6.99377 20.7087L5.40381 18.7498L6.00833 18.1844L6.99377 20.7087Z" fill="#763D16" stroke="#763D16" stroke-width="0.190386"/>
<path d="M27.1085 33.8876L26.0071 35.0502L16.3018 33.4814L27.1085 33.8876Z" fill="#D7C1B3" stroke="#D7C1B3" stroke-width="0.190386"/>
<path d="M27.6302 31.0369L16.3018 33.4815L18.9517 28.1702L27.6302 31.0369Z" fill="#E4761B" stroke="#E4761B" stroke-width="0.190386"/>
<path d="M16.3018 33.4815L27.6302 31.0369L27.1085 33.8876L16.3018 33.4815Z" fill="#D7C1B3" stroke="#D7C1B3" stroke-width="0.190386"/>
<path d="M5.21347 14.8559L4.84082 8.7323L12.8486 10.4603L5.21347 14.8559ZM6.00845 18.1844L4.90707 17.1094L5.65236 16.3768L6.00845 18.1844Z" fill="#763D16" stroke="#763D16" stroke-width="0.190386"/>
<path d="M21.2456 23.7267L23.1006 22.15L22.8356 26.0041L21.2456 23.7267Z" fill="#CD6116" stroke="#CD6116" stroke-width="0.190386"/>
<path d="M23.1005 22.15L21.2455 23.7267L18.5459 25.0725L23.1005 22.15Z" fill="#CD6116" stroke="#CD6116" stroke-width="0.190386"/>
<path d="M31.7792 30.575L31.2741 30.2166L27.6553 25.6936L31.7792 30.575Z" fill="#F6851B" stroke="#F6851B" stroke-width="0.190386"/>
<path d="M18.5463 25.0725L14.8032 21.9828L23.1008 22.15L18.5463 25.0725Z" fill="#CD6116" stroke="#CD6116" stroke-width="0.190386"/>
<path d="M22.8354 26.0041L23.1004 22.15L24.119 24.5867L22.8354 26.0041Z" fill="#E4751F" stroke="#E4751F" stroke-width="0.190386"/>
<path d="M4.54297 15.4611L5.21373 14.856L5.65263 16.3769L4.54297 15.4611Z" fill="#763D16" stroke="#763D16" stroke-width="0.190386"/>
<path d="M22.8355 26.0041L18.5459 25.0724L21.2455 23.7267L22.8355 26.0041Z" fill="#233447" stroke="#233447" stroke-width="0.190386"/>
<path d="M12.8486 10.4603L4.84082 8.73232L8.11183 3.33337L12.8486 10.4603Z" fill="#763D16" stroke="#763D16" stroke-width="0.190386"/>
<path d="M26.007 35.0502L26.4624 36.2446L19.0923 34.5326L26.007 35.0502Z" fill="#C0AD9E" stroke="#C0AD9E" stroke-width="0.190386"/>
<path d="M18.9517 28.1701L18.5459 25.0725L22.8355 26.0042L18.9517 28.1701Z" fill="#F6851B" stroke="#F6851B" stroke-width="0.190386"/>
<path d="M14.8032 21.9828L18.5463 25.0725L18.952 28.1701L14.8032 21.9828Z" fill="#E4751F" stroke="#E4751F" stroke-width="0.190386"/>
<path d="M24.1191 24.5867L27.3984 24.4036L31.2739 30.2166L24.1191 24.5867ZM14.8029 21.9828L18.9517 28.1701L13.8506 28.409L14.8029 21.9828Z" fill="#F6851B" stroke="#F6851B" stroke-width="0.190386"/>
<path d="M24.119 24.5868L28.1933 30.5511L22.8354 26.0042L24.119 24.5868Z" fill="#E4751F" stroke="#E4751F" stroke-width="0.190386"/>
<path d="M22.8354 26.0042L28.1933 30.5511L27.6302 31.0368L22.8354 26.0042Z" fill="#F6851B" stroke="#F6851B" stroke-width="0.190386"/>
<path d="M27.6302 31.0369L18.9517 28.1702L22.8355 26.0042L27.6302 31.0369ZM31.2739 30.2167L28.1933 30.5511L24.119 24.5868L31.2739 30.2167Z" fill="#F6851B" stroke="#F6851B" stroke-width="0.190386"/>
<path d="M32.0856 33.0197L30.7606 35.5758L26.4628 36.2447L32.0856 33.0197ZM26.4628 36.2447L26.0073 35.0502L27.1087 33.8876L26.4628 36.2447Z" fill="#C0AD9E" stroke="#C0AD9E" stroke-width="0.190386"/>
<path d="M27.1088 33.8876L27.9204 33.5771L26.4629 36.2447L27.1088 33.8876ZM26.4629 36.2447L27.9204 33.5771L32.0857 33.0197L26.4629 36.2447Z" fill="#C0AD9E" stroke="#C0AD9E" stroke-width="0.190386"/>
<path d="M31.2743 30.2167L32.2929 30.8139L29.1958 31.1722L31.2743 30.2167Z" fill="#161616" stroke="#161616" stroke-width="0.190386"/>
<path d="M29.1954 31.1722L28.1934 30.5511L31.2739 30.2167L29.1954 31.1722ZM28.8393 31.6421L32.6072 31.2041L32.0854 33.0197L28.8393 31.6421Z" fill="#161616" stroke="#161616" stroke-width="0.190386"/>
<path d="M32.0858 33.0196L27.9204 33.577L28.8396 31.642L32.0858 33.0196ZM27.9204 33.577L27.1089 33.8876L27.6306 31.0368L27.9204 33.577ZM27.6306 31.0368L28.1937 30.551L29.1957 31.1721L27.6306 31.0368ZM32.2928 30.8138L32.6075 31.204L28.8396 31.642L32.2928 30.8138Z" fill="#161616" stroke="#161616" stroke-width="0.190386"/>
<path d="M28.8394 31.642L29.1955 31.1722L32.2926 30.8138L28.8394 31.642ZM27.6304 31.0368L28.8394 31.642L27.9202 33.577L27.6304 31.0368Z" fill="#161616" stroke="#161616" stroke-width="0.190386"/>
<path d="M29.1955 31.1722L28.8394 31.642L27.6304 31.0369L29.1955 31.1722Z" fill="#161616" stroke="#161616" stroke-width="0.190386"/>
</svg>
