<svg width="35" height="35" viewBox="0 0 35 35" fill="none" xmlns="http://www.w3.org/2000/svg">
<path d="M21.7337 17.5C21.7337 19.8404 19.8402 21.7339 17.4998 21.7339C15.1594 21.7339 13.266 19.8404 13.266 17.5C13.266 15.1596 15.1594 13.2661 17.4998 13.2661C19.8402 13.2661 21.7337 15.1596 21.7337 17.5ZM27.8493 13.2661C25.5089 13.2661 23.6154 15.1596 23.6154 17.5C23.6154 19.8404 25.5089 21.7339 27.8493 21.7339C30.1897 21.7339 32.0832 19.8404 32.0832 17.5C32.0832 15.1596 30.1897 13.2661 27.8493 13.2661ZM7.15038 13.2661C4.80999 13.2661 2.9165 15.1596 2.9165 17.5C2.9165 19.8404 4.80999 21.7339 7.15038 21.7339C9.49077 21.7339 11.3842 19.8404 11.3842 17.5C11.3842 15.1596 9.49077 13.2661 7.15038 13.2661Z" fill="white"/>
</svg>
