<svg width="40" height="40" viewBox="0 0 40 40" fill="none" xmlns="http://www.w3.org/2000/svg">
<path d="M8.67969 22.4905L9.48246 22.1439L19.3712 17.8381L30.0627 22.4905L26.0488 30.7919L16.2331 32.1785L8.84389 24.2055L8.67969 22.4905Z" fill="#133444"/>
<path d="M27.8555 17.3819C26.0857 15.2473 23.5862 13.8789 20.8494 13.514L20.667 13.4957C19.8095 13.3863 18.952 13.3863 18.0945 13.4957L17.912 13.514C15.1753 13.8789 12.6757 15.2655 10.906 17.3819L10.4681 18.1117L9.72007 19.3341L9.17272 20.2281C9.17272 20.2464 9.15448 20.2829 9.13623 20.3011V20.3194L10.3221 21.0309L17.8938 25.5192L19.3534 26.3767V15.6669L17.8938 16.3237V14.7182L19.3534 14.0613L20.813 14.7182L28.2569 18.1117L27.8555 17.3819Z" fill="#C42370"/>
<path d="M30.3916 25.1537C30.3733 28.675 28.786 31.9956 26.0675 34.2215C25.0276 35.079 23.8599 35.7176 22.5827 36.1555C21.5428 36.5021 20.4663 36.6663 19.3716 36.6663C13.2779 36.6663 8.3335 31.2476 8.3335 25.1537C8.3335 24.2597 8.44297 23.3657 8.6619 22.4899L19.3534 28.821L30.0449 22.4899C30.2821 23.3657 30.4098 24.2597 30.3916 25.1537Z" fill="#1C4D6B"/>
<path d="M18.0946 13.4955L19.3717 14.0611L17.9121 14.7362V13.4043L18.0946 13.4955Z" fill="black"/>
<path d="M17.9121 16.3419L19.3717 15.6669V26.3949L17.9121 25.5191V16.3419Z" fill="black"/>
<path d="M19.3716 15.6669V26.3949L29.6252 20.3376L19.3716 15.6669Z" fill="#1D4259"/>
<path d="M19.3716 3.33331V15.6669L29.6252 20.3376L19.3716 3.33331Z" fill="#4B6B9A"/>
<path d="M19.3718 15.667V26.3768L17.9122 25.5192L9.13641 20.3377H9.11816H9.13641C9.13641 20.3195 9.15465 20.283 9.1729 20.2647L10.45 18.1301L17.894 14.7548V16.3421L19.3718 15.667Z" fill="#343535"/>
<path d="M19.3716 15.6669V26.3949L17.912 25.5191L9.13623 20.3376L9.15448 20.3193L17.912 16.3419L19.3716 15.6669Z" fill="#3E5578"/>
<path d="M19.3716 3.33331V15.6669L9.13623 20.3376L19.3716 3.33331Z" fill="#6DB2D8"/>
<path d="M15.23 35.7913C15.3759 35.8642 15.5401 35.9189 15.6861 35.9736C15.5401 35.9189 15.3942 35.8459 15.23 35.7913Z" fill="#335F8A"/>
<path d="M15.6865 35.9736C15.8325 36.0284 15.9967 36.1013 16.1609 36.1378C16.0149 36.1013 15.8507 36.0466 15.6865 35.9736Z" fill="#335F8A"/>
<path d="M16.5801 36.265C16.7078 36.3015 16.8173 36.338 16.945 36.3562C16.8173 36.338 16.6895 36.3015 16.5801 36.265Z" fill="#335F8A"/>
<path d="M8.68046 22.4899L19.3719 28.8209C19.226 29.7879 18.9706 30.7184 18.6057 31.6306C17.7481 33.7106 16.0331 35.9 12.6761 34.2214C9.9576 31.9955 8.3703 28.675 8.35205 25.1537C8.35205 24.2597 8.46152 23.3657 8.68046 22.4899Z" fill="#6DB2D8"/>
<path d="M26.0674 34.2221L26.0309 34.2404C25.9762 34.2769 25.9215 34.3316 25.8667 34.3681L25.8485 34.3863C25.7938 34.4411 25.7208 34.4776 25.666 34.5323C25.5931 34.587 25.5383 34.6418 25.4654 34.6783C25.3924 34.7148 25.3194 34.7695 25.2647 34.8242C25.1917 34.879 25.1369 34.8972 25.0822 34.9519L25.0457 34.9702C24.9727 35.0067 24.918 35.0432 24.8633 35.0979C24.8633 35.0979 24.845 35.0979 24.845 35.1161C24.772 35.1526 24.7173 35.1891 24.6443 35.2439C24.5714 35.2803 24.4984 35.3168 24.4254 35.3716C24.3524 35.4081 24.2794 35.4445 24.2065 35.481L23.9875 35.5905C23.9145 35.627 23.8416 35.6635 23.7686 35.7C23.6956 35.7365 23.6226 35.773 23.5496 35.8094C23.4037 35.8824 23.2395 35.9372 23.0935 35.9919C22.9476 36.0466 22.7834 36.1014 22.6191 36.1561C22.5644 36.1743 22.4914 36.1926 22.4367 36.2108L22.2178 36.2838C22.09 36.3203 21.9806 36.3568 21.8529 36.375C21.8164 36.3933 21.7616 36.3933 21.7069 36.4115L21.6339 36.4298L21.4332 36.4663C21.3603 36.4845 21.3238 36.4845 21.2508 36.5027C21.196 36.521 21.1413 36.521 21.0866 36.5392C21.0318 36.5392 20.9589 36.5575 20.9041 36.5757C20.8676 36.5757 20.8494 36.5757 20.8129 36.594L20.6669 36.6122H20.594C20.5392 36.6122 20.4845 36.6305 20.448 36.6305C20.3933 36.6305 20.3203 36.6487 20.2656 36.6487C20.2108 36.6487 20.1743 36.6487 20.1196 36.6487C20.0649 36.6487 20.0284 36.6487 19.9919 36.6487C19.9372 36.6487 19.8824 36.6487 19.8459 36.6487C19.8094 36.6487 19.7 36.6487 19.6452 36.6487H19.2074C19.1344 36.6487 19.0614 36.6487 19.0067 36.6487C18.9519 36.6487 18.8972 36.6487 18.8607 36.6487C18.8242 36.6487 18.7695 36.6487 18.733 36.6487C18.6965 36.6487 18.6418 36.6487 18.587 36.6487C18.5323 36.6487 18.4593 36.6305 18.4046 36.6305C18.3498 36.6305 18.2951 36.6305 18.2586 36.6122H18.1856C18.1492 36.6122 18.0944 36.594 18.0397 36.594C18.0032 36.594 17.9849 36.594 17.9485 36.5757C17.8937 36.5757 17.8207 36.5575 17.766 36.5392C17.7113 36.5392 17.6565 36.521 17.6018 36.5027C17.5471 36.5027 17.4741 36.4845 17.4194 36.4663C17.3646 36.448 17.2916 36.4298 17.2187 36.4298L17.1457 36.4115C17.0909 36.4115 17.0362 36.3933 16.9997 36.3933C16.872 36.3568 16.7443 36.3203 16.6348 36.3021L16.4159 36.2291C16.3429 36.2108 16.2882 36.1926 16.2334 36.1743C16.0692 36.1196 15.9233 36.0649 15.7591 36.0101C15.5949 35.9554 15.4489 35.8824 15.3029 35.8277C15.23 35.7912 15.157 35.7547 15.084 35.7182L14.8651 35.6088L14.6461 35.4993C14.5732 35.4628 14.5002 35.4263 14.4272 35.3898C14.3542 35.3533 14.2812 35.3168 14.2083 35.2621C14.1353 35.2256 14.0805 35.1891 14.0076 35.1344L13.9893 35.1161C13.9163 35.0796 13.8616 35.0432 13.8069 34.9884L13.7704 34.9702C13.7156 34.9337 13.6427 34.8972 13.5879 34.8425C13.5332 34.806 13.442 34.7512 13.3872 34.6965C13.3143 34.6418 13.2413 34.6053 13.1865 34.5505L13.0041 34.4046L12.9858 34.3863C12.9311 34.3499 12.8764 34.2951 12.8216 34.2586L12.7852 34.2404C16.124 35.9007 17.8572 33.7113 18.7147 31.6496C19.0796 30.7556 19.3351 29.8069 19.481 28.8399C19.627 29.8069 19.8824 30.7374 20.2473 31.6496C20.9954 33.693 22.7286 35.8824 26.0674 34.2221Z" fill="#529BBA"/>
<path d="M21.8164 36.3744C21.9441 36.3379 22.0718 36.3014 22.1813 36.2831C22.0718 36.3014 21.9441 36.3379 21.8164 36.3744Z" fill="#335F8A"/>
<path d="M22.583 36.1378C22.7472 36.0831 22.8932 36.0284 23.0574 35.9736C22.9114 36.0466 22.7472 36.1013 22.583 36.1378Z" fill="#335F8A"/>
<path d="M23.0571 35.9736C23.2031 35.9189 23.3673 35.8459 23.5132 35.7913C23.3673 35.8459 23.2213 35.9189 23.0571 35.9736Z" fill="#335F8A"/>
<path d="M30.3915 25.1537C30.3733 28.675 28.786 31.9956 26.0675 34.2215C22.7287 35.8818 20.9954 33.6924 20.1379 31.6307C19.773 30.7367 19.5175 29.7879 19.3716 28.821L30.0631 22.4899C30.2821 23.3657 30.3915 24.2597 30.3915 25.1537Z" fill="#4B6B9A"/>
</svg>
