<svg width="20" height="21" viewBox="0 0 20 21" fill="none" xmlns="http://www.w3.org/2000/svg">
<path d="M9.99993 2.16669C5.39788 2.16669 1.6666 5.89931 1.6666 10.5C1.6666 15.1034 5.39788 18.8334 9.99993 18.8334C14.602 18.8334 18.3333 15.1034 18.3333 10.5C18.3333 5.89931 14.602 2.16669 9.99993 2.16669ZM9.99993 17.2204C6.28582 17.2204 3.2795 14.2154 3.2795 10.5C3.2795 6.78715 6.28595 3.77959 9.99993 3.77959C13.7127 3.77959 16.7204 6.78601 16.7204 10.5C16.7204 14.2141 13.7153 17.2204 9.99993 17.2204ZM13.6036 8.64518C13.6036 10.8983 11.1701 10.933 11.1701 11.7656V11.9785C11.1701 12.2012 10.9895 12.3817 10.7668 12.3817H9.23299C9.01031 12.3817 8.82977 12.2012 8.82977 11.9785V11.6876C8.82977 10.4864 9.74039 10.0063 10.4285 9.62048C11.0186 9.28967 11.3803 9.06467 11.3803 8.62657C11.3803 8.04706 10.6411 7.66242 10.0434 7.66242C9.26424 7.66242 8.90453 8.03127 8.39889 8.66944C8.26256 8.84149 8.01381 8.87344 7.83887 8.74081L6.90393 8.03188C6.73232 7.90177 6.69388 7.66003 6.81508 7.48204C7.609 6.31625 8.62022 5.66131 10.1946 5.66131C11.8435 5.66131 13.6036 6.94841 13.6036 8.64518ZM11.4112 14.2635C11.4112 15.0417 10.7781 15.6748 9.99993 15.6748C9.22174 15.6748 8.58864 15.0417 8.58864 14.2635C8.58864 13.4853 9.22174 12.8522 9.99993 12.8522C10.7781 12.8522 11.4112 13.4853 11.4112 14.2635Z" fill="#B7BECB"/>
</svg>
