<svg width="20" height="20" viewBox="0 0 20 20" fill="none" xmlns="http://www.w3.org/2000/svg">
<path d="M3.25018 10C3.25018 10.297 3.27718 10.594 3.31318 10.882L1.72518 12.124C1.55486 12.2574 1.43841 12.4478 1.39726 12.6602C1.35611 12.8725 1.39301 13.0926 1.50118 13.28L2.91318 15.723C3.02131 15.9101 3.19328 16.0519 3.39754 16.1224C3.6018 16.193 3.82464 16.1875 4.02518 16.107L5.44718 15.536C5.5856 15.4824 5.73501 15.4634 5.88244 15.4807C6.02987 15.4979 6.17087 15.5509 6.29318 15.635C6.51318 15.781 6.74118 15.915 6.97718 16.035C7.24718 16.172 7.44318 16.417 7.48618 16.717L7.70318 18.23C7.76618 18.672 8.14518 19 8.59118 19H11.4082C11.6241 19 11.8327 18.9221 11.9959 18.7807C12.159 18.6393 12.2656 18.4437 12.2962 18.23L12.5132 16.718C12.5368 16.5712 12.5958 16.4323 12.685 16.3134C12.7741 16.1944 12.8909 16.0989 13.0252 16.035C13.2602 15.917 13.4872 15.784 13.7062 15.639C13.8288 15.554 13.9704 15.5002 14.1185 15.4825C14.2667 15.4647 14.4169 15.4834 14.5562 15.537L15.9752 16.107C16.1757 16.1873 16.3985 16.1927 16.6027 16.1221C16.8069 16.0516 16.9789 15.9099 17.0872 15.723L18.4992 13.28C18.6073 13.0926 18.6442 12.8725 18.6031 12.6602C18.5619 12.4478 18.4455 12.2574 18.2752 12.124L16.6872 10.882C16.7232 10.594 16.7502 10.297 16.7502 10C16.7502 9.703 16.7232 9.406 16.6872 9.118L18.2752 7.876C18.4455 7.74261 18.5619 7.55222 18.6031 7.33984C18.6442 7.12745 18.6073 6.90735 18.4992 6.72L17.0872 4.277C16.979 4.08991 16.8071 3.94809 16.6028 3.87755C16.3986 3.80702 16.1757 3.8125 15.9752 3.893L14.5562 4.463C14.4169 4.51634 14.2667 4.53492 14.1186 4.51715C13.9705 4.49938 13.8289 4.44578 13.7062 4.361C13.4873 4.21555 13.2599 4.08332 13.0252 3.965C12.8909 3.90113 12.7741 3.8056 12.685 3.68663C12.5958 3.56766 12.5368 3.4288 12.5132 3.282L12.2972 1.77C12.2666 1.55627 12.16 1.36074 11.9969 1.2193C11.8337 1.07785 11.6251 0.999991 11.4092 1H8.59218C8.37627 0.999991 8.16761 1.07785 8.00449 1.2193C7.84137 1.36074 7.73474 1.55627 7.70418 1.77L7.48618 3.284C7.46252 3.43026 7.40389 3.56865 7.31527 3.68739C7.22665 3.80613 7.11067 3.90171 6.97718 3.966C6.74118 4.086 6.51318 4.221 6.29318 4.366C6.17049 4.44971 6.0293 4.50236 5.88176 4.51943C5.73422 4.5365 5.58474 4.51748 5.44618 4.464L4.02518 3.893C3.82464 3.8125 3.6018 3.80702 3.39754 3.87755C3.19328 3.94809 3.02131 4.08991 2.91318 4.277L1.50118 6.72C1.39301 6.90735 1.35611 7.12745 1.39726 7.33984C1.43841 7.55222 1.55486 7.74261 1.72518 7.876L3.31318 9.118C3.27397 9.41042 3.25293 9.70498 3.25018 10V10Z" stroke="#B7BECB" stroke-width="1.5" stroke-linecap="round" stroke-linejoin="round"/>
</svg>
