<svg width="139" height="138" viewBox="0 0 139 138" fill="none" xmlns="http://www.w3.org/2000/svg">
<circle cx="69.5" cy="69" r="65" fill="#2669F5" stroke="#0A4EDB" stroke-width="8"/>
<path d="M63.1247 96.1745C61.4925 96.1775 59.9036 95.6497 58.5976 94.6707L58.5166 94.6099L41.4676 81.5566C40.6781 80.9516 40.0154 80.197 39.5174 79.336C39.0195 78.4749 38.696 77.5241 38.5655 76.5381C38.4349 75.552 38.4999 74.5498 38.7567 73.5888C39.0135 72.6278 39.457 71.7268 40.062 70.9373C40.6669 70.1477 41.4215 69.485 42.2826 68.9871C43.1437 68.4891 44.0944 68.1656 45.0805 68.0351C46.0666 67.9046 47.0687 67.9695 48.0297 68.2263C48.9907 68.4831 49.8917 68.9266 50.6813 69.5316L61.7243 77.9992L87.821 43.9656C88.426 43.1762 89.181 42.5138 90.042 42.0162C90.903 41.5185 91.854 41.1954 92.84 41.0652C93.826 40.935 94.829 41.0003 95.789 41.2575C96.75 41.5146 97.651 41.9585 98.441 42.5638L98.278 42.7841L98.445 42.567C100.037 43.7907 101.079 45.5961 101.342 47.587C101.604 49.5779 101.067 51.5918 99.847 53.1868L69.1509 93.2185C68.4409 94.1409 67.528 94.8874 66.483 95.4001C65.4379 95.9127 64.2888 96.1777 63.1247 96.1745Z" fill="white"/>
</svg>
