<svg width="19" height="17" viewBox="0 0 19 17" fill="none" xmlns="http://www.w3.org/2000/svg">
<path fill-rule="evenodd" clip-rule="evenodd" d="M4.86916 1.10724C4.87945 1.10547 4.88965 1.10419 4.90001 1.10319C4.90952 1.10227 4.91891 1.10146 4.92847 1.10118C4.93033 1.10113 4.93214 1.10086 4.93394 1.1006C4.93597 1.1003 4.93799 1.1 4.9401 1.1C4.9422 1.1 4.94423 1.1003 4.94625 1.1006C4.94806 1.10086 4.94986 1.10113 4.95172 1.10118C4.96128 1.10145 4.97066 1.10227 4.98018 1.10319C4.99054 1.1042 5.00073 1.10547 5.01101 1.10724L5.01467 1.10787C5.02134 1.109 5.02794 1.11013 5.03449 1.11166C5.04122 1.11323 5.0478 1.11522 5.05441 1.11722C5.05608 1.11773 5.05774 1.11823 5.05942 1.11873C5.06961 1.12179 5.07958 1.12509 5.08956 1.12893C5.09135 1.12962 5.09313 1.13029 5.09491 1.13097C5.10067 1.13314 5.10639 1.13531 5.11199 1.13786C5.11788 1.14052 5.12353 1.14359 5.12921 1.14668C5.13135 1.14784 5.13349 1.149 5.13565 1.15015C5.14476 1.15499 5.15367 1.16002 5.1625 1.16559C5.16385 1.16644 5.16519 1.16729 5.16653 1.16813C5.17207 1.17161 5.17757 1.17507 5.18289 1.17889C5.18879 1.18312 5.19438 1.18782 5.19999 1.19253C5.20184 1.19408 5.20368 1.19563 5.20554 1.19716C5.2077 1.19894 5.20998 1.20047 5.21225 1.202C5.21501 1.20385 5.21776 1.20569 5.22029 1.20798C5.22224 1.20973 5.22373 1.21178 5.22537 1.21373C5.22609 1.2146 5.22685 1.21546 5.22769 1.21626C5.23391 1.22217 5.23988 1.22816 5.24574 1.23443C5.24702 1.23581 5.24842 1.237 5.24983 1.23818C5.25138 1.2395 5.25293 1.24082 5.25431 1.24238L8.87383 5.34746C8.97426 5.46092 9.00712 5.61998 8.95998 5.7646C8.91284 5.90922 8.7929 6.01737 8.64542 6.04822C8.49795 6.07907 8.34541 6.02792 8.24539 5.91408L5.36111 2.64286L5.36111 16.0743C5.36111 16.3094 5.17261 16.5 4.94009 16.5C4.70758 16.5 4.51908 16.3094 4.51908 16.0743L4.51908 2.64283L1.63469 5.91407C1.47983 6.08902 1.21411 6.10414 1.0408 5.94788C0.867496 5.79162 0.85204 5.52298 1.00626 5.34745L4.62587 1.24238C4.62726 1.24081 4.62881 1.23949 4.63037 1.23817C4.63177 1.23699 4.63317 1.2358 4.63444 1.23443C4.63814 1.23046 4.64188 1.2266 4.64781 1.22048C4.65106 1.21712 4.65498 1.21308 4.6599 1.20798C4.66243 1.2057 4.66517 1.20386 4.66791 1.20202C4.67018 1.20049 4.67245 1.19896 4.67461 1.19718C4.67642 1.19569 4.67822 1.19417 4.68002 1.19267C4.6857 1.1879 4.69135 1.18315 4.69732 1.17887C4.70277 1.17495 4.7084 1.17142 4.71407 1.16786C4.71526 1.16711 4.71645 1.16637 4.71764 1.16562C4.72649 1.16002 4.73543 1.15499 4.74457 1.15013C4.74664 1.14903 4.74869 1.14791 4.75074 1.1468C4.7565 1.14367 4.76224 1.14055 4.76819 1.13785C4.77381 1.1353 4.77956 1.13313 4.78535 1.13094C4.78711 1.13027 4.78887 1.12961 4.79063 1.12893C4.80061 1.1251 4.81057 1.12177 4.82075 1.11873C4.82254 1.1182 4.82433 1.11766 4.82612 1.11712C4.83262 1.11515 4.83908 1.11319 4.8457 1.11165C4.85248 1.11007 4.85934 1.1089 4.86626 1.10773L4.86916 1.10724ZM14.0378 14.9571L14.0378 1.52569C14.0378 1.29059 14.2263 1.1 14.4588 1.1C14.6914 1.1 14.8799 1.29059 14.8799 1.52569L14.8799 14.9572L17.7642 11.6859C17.8643 11.5721 18.0168 11.5209 18.1643 11.5518C18.3118 11.5826 18.4317 11.6908 18.4788 11.8354C18.526 11.98 18.4931 12.1391 18.3927 12.2525L14.7731 16.3576C14.7717 16.3592 14.7701 16.3605 14.7686 16.3618C14.7672 16.363 14.7658 16.3642 14.7645 16.3656C14.7586 16.3718 14.7527 16.3778 14.7464 16.3837C14.7452 16.385 14.7441 16.3863 14.743 16.3877C14.7417 16.3892 14.7405 16.3907 14.739 16.392C14.7365 16.3943 14.7338 16.3961 14.731 16.398C14.7287 16.3995 14.7265 16.4011 14.7243 16.4028C14.7225 16.4044 14.7206 16.4059 14.7188 16.4074C14.7132 16.4121 14.7076 16.4169 14.7016 16.4211C14.6963 16.4249 14.6909 16.4284 14.6854 16.4318C14.684 16.4327 14.6826 16.4335 14.6812 16.4344C14.6724 16.44 14.6635 16.445 14.6544 16.4499C14.6522 16.451 14.6501 16.4522 14.648 16.4533C14.6423 16.4564 14.6366 16.4595 14.6307 16.4621C14.6251 16.4647 14.6194 16.4669 14.6136 16.469C14.6119 16.4697 14.6101 16.4704 14.6083 16.4711C14.5983 16.4749 14.5884 16.4782 14.5782 16.4813C14.5764 16.4818 14.5747 16.4823 14.573 16.4828C14.5665 16.4848 14.5599 16.4868 14.5532 16.4883C14.5467 16.4899 14.5401 16.491 14.5334 16.4921C14.5322 16.4923 14.531 16.4925 14.5298 16.4928C14.5195 16.4945 14.5093 16.4958 14.4989 16.4968C14.4894 16.4977 14.48 16.4985 14.4705 16.4988C14.4686 16.4989 14.4668 16.4991 14.465 16.4994C14.463 16.4997 14.461 16.5 14.4588 16.5C14.4567 16.5 14.4547 16.4997 14.4527 16.4994C14.4509 16.4991 14.4491 16.4989 14.4472 16.4988C14.4377 16.4985 14.4283 16.4977 14.4188 16.4968C14.4084 16.4958 14.3982 16.4945 14.3879 16.4928L14.385 16.4923C14.3781 16.4911 14.3712 16.4899 14.3645 16.4883C14.3578 16.4868 14.3513 16.4848 14.3447 16.4828C14.343 16.4823 14.3412 16.4818 14.3395 16.4813C14.3293 16.4782 14.3194 16.4749 14.3094 16.4711C14.3076 16.4704 14.3059 16.4697 14.3041 16.4691C14.2983 16.4669 14.2926 16.4647 14.2869 16.4621C14.281 16.4595 14.2753 16.4564 14.2696 16.4533C14.2675 16.4521 14.2654 16.451 14.2633 16.4499C14.2542 16.445 14.2452 16.44 14.2364 16.4344C14.2353 16.4337 14.2341 16.433 14.233 16.4322C14.2273 16.4287 14.2216 16.4251 14.2161 16.4211C14.2101 16.4168 14.2045 16.4121 14.1988 16.4073C14.197 16.4058 14.1952 16.4043 14.1934 16.4028C14.1922 16.4018 14.1909 16.4009 14.1895 16.3999C14.1855 16.3969 14.1801 16.3929 14.1708 16.3834C14.1648 16.3776 14.1589 16.3717 14.1532 16.3656C14.1519 16.3642 14.1505 16.363 14.1491 16.3618C14.1476 16.3605 14.146 16.3592 14.1446 16.3576L10.5251 12.2525C10.3709 12.077 10.3863 11.8084 10.5597 11.6521C10.733 11.4959 10.9987 11.511 11.1535 11.6859L14.0378 14.9571Z" fill="#2669F5"/>
<path d="M4.90001 1.10319L4.92405 1.35203L4.92407 1.35203L4.90001 1.10319ZM4.86916 1.10724L4.91112 1.35369L4.91155 1.35362L4.86916 1.10724ZM4.92847 1.10118L4.93565 1.35108L4.93588 1.35107L4.92847 1.10118ZM4.93394 1.1006L4.97029 1.34794L4.9704 1.34792L4.93394 1.1006ZM4.94625 1.1006L4.9098 1.34792L4.9099 1.34794L4.94625 1.1006ZM4.95172 1.10118L4.94431 1.35107L4.94459 1.35108L4.95172 1.10118ZM4.98018 1.10319L5.00431 0.854362L5.00426 0.854357L4.98018 1.10319ZM5.01101 1.10724L4.96867 1.35363L4.96889 1.35367L5.01101 1.10724ZM5.01467 1.10787L4.97255 1.35429L4.97263 1.35431L5.01467 1.10787ZM5.03449 1.11166L5.09142 0.868224L5.09123 0.868178L5.03449 1.11166ZM5.05441 1.11722L5.12688 0.877959L5.12687 0.877954L5.05441 1.11722ZM5.05942 1.11873L5.13115 0.879247L5.13098 0.879195L5.05942 1.11873ZM5.08956 1.12893L4.99967 1.36221L4.99973 1.36224L5.08956 1.12893ZM5.09491 1.13097L5.18332 0.897121L5.18328 0.897104L5.09491 1.13097ZM5.11199 1.13786L5.00841 1.36539L5.00895 1.36563L5.11199 1.13786ZM5.12921 1.14668L5.00984 1.36634L5.00987 1.36635L5.12921 1.14668ZM5.13565 1.15015L5.25308 0.929444L5.25279 0.929289L5.13565 1.15015ZM5.1625 1.16559L5.29626 0.954388L5.29596 0.954193L5.1625 1.16559ZM5.16653 1.16813L5.2996 0.956491L5.29957 0.956471L5.16653 1.16813ZM5.18289 1.17889L5.037 1.38191L5.03735 1.38216L5.18289 1.17889ZM5.19999 1.19253L5.36078 1.00109L5.36075 1.00107L5.19999 1.19253ZM5.20554 1.19716L5.04635 1.38992L5.04636 1.38994L5.20554 1.19716ZM5.21225 1.202L5.35159 0.994431L5.35155 0.994404L5.21225 1.202ZM5.22029 1.20798L5.05273 1.39352L5.05322 1.39396L5.22029 1.20798ZM5.22537 1.21373L5.41713 1.05334L5.41707 1.05326L5.22537 1.21373ZM5.22769 1.21626L5.05512 1.39715L5.05545 1.39746L5.22769 1.21626ZM5.24574 1.23443L5.42866 1.06402L5.42847 1.06382L5.24574 1.23443ZM5.24983 1.23818L5.08811 1.42884L5.08814 1.42886L5.24983 1.23818ZM5.25431 1.24238L5.44183 1.07704L5.44167 1.07686L5.25431 1.24238ZM8.87383 5.34746L8.68631 5.5128L8.68664 5.51317L8.87383 5.34746ZM8.24539 5.91408L8.4332 5.74907L8.43291 5.74874L8.24539 5.91408ZM5.36111 2.64286L5.54863 2.47752L5.11111 1.98131V2.64286H5.36111ZM4.51908 2.64283H4.76908V1.98129L4.33157 2.47749L4.51908 2.64283ZM1.63469 5.91407L1.82189 6.07978L1.82221 6.07941L1.63469 5.91407ZM1.00626 5.34745L0.818743 5.18211L0.818453 5.18244L1.00626 5.34745ZM4.62587 1.24238L4.43839 1.077L4.43836 1.07704L4.62587 1.24238ZM4.63037 1.23817L4.46877 1.04742L4.46871 1.04747L4.63037 1.23817ZM4.63444 1.23443L4.8174 1.4048L4.81746 1.40474L4.63444 1.23443ZM4.64781 1.22048L4.82735 1.39445L4.82736 1.39444L4.64781 1.22048ZM4.6599 1.20798L4.49256 1.02224L4.48602 1.02813L4.47991 1.03447L4.6599 1.20798ZM4.66791 1.20202L4.52849 0.994501L4.52846 0.994522L4.66791 1.20202ZM4.67461 1.19718L4.83372 1.39001L4.83393 1.38984L4.67461 1.19718ZM4.68002 1.19267L4.84077 1.38413H4.84077L4.68002 1.19267ZM4.69732 1.17887L4.84301 1.38203L4.84325 1.38186L4.69732 1.17887ZM4.71407 1.16786L4.58122 0.956079L4.58117 0.956112L4.71407 1.16786ZM4.71764 1.16562L4.85113 1.37699L4.85126 1.37691L4.71764 1.16562ZM4.74457 1.15013L4.86196 1.37086L4.86198 1.37084L4.74457 1.15013ZM4.75074 1.1468L4.87018 1.36642L4.87019 1.36642L4.75074 1.1468ZM4.76819 1.13785L4.8711 1.36569L4.87155 1.36549L4.76819 1.13785ZM4.78535 1.13094L4.87382 1.36476L4.87388 1.36474L4.78535 1.13094ZM4.79063 1.12893L4.70107 0.895521L4.70078 0.895632L4.79063 1.12893ZM4.82075 1.11873L4.74943 0.879119L4.7492 0.879189L4.82075 1.11873ZM4.82612 1.11712L4.7537 0.877835L4.75369 0.877836L4.82612 1.11712ZM4.8457 1.11165L4.9023 1.35516L4.90252 1.35511L4.8457 1.11165ZM4.86626 1.10773L4.90809 1.35421L4.90822 1.35418L4.86626 1.10773ZM14.0378 14.9571L13.8503 15.1225L14.2878 15.6187V14.9571H14.0378ZM14.8799 14.9572H14.6299V15.6187L15.0674 15.1225L14.8799 14.9572ZM17.7642 11.6859L17.9518 11.8513L17.9521 11.8509L17.7642 11.6859ZM18.1643 11.5518L18.1131 11.7965L18.1643 11.5518ZM18.4788 11.8354L18.2411 11.9129L18.2411 11.9129L18.4788 11.8354ZM18.3927 12.2525L18.2055 12.0868L18.2052 12.0872L18.3927 12.2525ZM14.7731 16.3576L14.9605 16.523L14.9606 16.523L14.7731 16.3576ZM14.7686 16.3618L14.6069 16.1711L14.6069 16.1711L14.7686 16.3618ZM14.7645 16.3656L14.9472 16.5362L14.9474 16.536L14.7645 16.3656ZM14.7464 16.3837L14.5742 16.2025L14.5738 16.2029L14.7464 16.3837ZM14.743 16.3877L14.5487 16.2303L14.5487 16.2303L14.743 16.3877ZM14.739 16.392L14.5718 16.2062L14.5718 16.2062L14.739 16.392ZM14.731 16.398L14.5916 16.1904L14.5916 16.1905L14.731 16.398ZM14.7243 16.4028L14.5651 16.2101L14.565 16.2101L14.7243 16.4028ZM14.7188 16.4074L14.8796 16.5988L14.8796 16.5988L14.7188 16.4074ZM14.7016 16.4211L14.5561 16.2179L14.5557 16.2181L14.7016 16.4211ZM14.6854 16.4318L14.8184 16.6435L14.8184 16.6435L14.6854 16.4318ZM14.6812 16.4344L14.8147 16.6458L14.8151 16.6456L14.6812 16.4344ZM14.6544 16.4499L14.7715 16.6707L14.7718 16.6706L14.6544 16.4499ZM14.648 16.4533L14.7673 16.673L14.7673 16.673L14.648 16.4533ZM14.6307 16.4621L14.5277 16.2344L14.5272 16.2346L14.6307 16.4621ZM14.6136 16.469L14.5252 16.2352L14.5252 16.2352L14.6136 16.469ZM14.6083 16.4711L14.6981 16.7044L14.6982 16.7044L14.6083 16.4711ZM14.5782 16.4813L14.6496 16.7208L14.6499 16.7207L14.5782 16.4813ZM14.573 16.4828L14.6455 16.7221L14.6455 16.7221L14.573 16.4828ZM14.5532 16.4883L14.61 16.7318L14.61 16.7318L14.5532 16.4883ZM14.5334 16.4921L14.5755 16.7386L14.5755 16.7386L14.5334 16.4921ZM14.5298 16.4928L14.5722 16.7391L14.5723 16.7391L14.5298 16.4928ZM14.4989 16.4968L14.4749 16.248L14.4748 16.248L14.4989 16.4968ZM14.4705 16.4988L14.4634 16.2489L14.4631 16.2489L14.4705 16.4988ZM14.465 16.4994L14.4286 16.2521L14.4286 16.2521L14.465 16.4994ZM14.4527 16.4994L14.4891 16.2521L14.4891 16.2521L14.4527 16.4994ZM14.4472 16.4988L14.4546 16.2489L14.4543 16.2489L14.4472 16.4988ZM14.4188 16.4968L14.3946 16.7456L14.3946 16.7456L14.4188 16.4968ZM14.3879 16.4928L14.4302 16.2464L14.4299 16.2463L14.3879 16.4928ZM14.385 16.4923L14.4269 16.2458L14.4269 16.2458L14.385 16.4923ZM14.3645 16.4883L14.3076 16.7318L14.3076 16.7318L14.3645 16.4883ZM14.3447 16.4828L14.2723 16.7221L14.2723 16.7221L14.3447 16.4828ZM14.3395 16.4813L14.2679 16.7208L14.2682 16.7209L14.3395 16.4813ZM14.3094 16.4711L14.2195 16.7044L14.2198 16.7045L14.3094 16.4711ZM14.3041 16.4691L14.3926 16.2352L14.3926 16.2352L14.3041 16.4691ZM14.2869 16.4621L14.3903 16.2345L14.3899 16.2343L14.2869 16.4621ZM14.2696 16.4533L14.1502 16.6729L14.1502 16.6729L14.2696 16.4533ZM14.2633 16.4499L14.146 16.6706L14.1461 16.6707L14.2633 16.4499ZM14.2364 16.4344L14.3701 16.2231L14.3698 16.223L14.2364 16.4344ZM14.233 16.4322L14.366 16.2205L14.3659 16.2205L14.233 16.4322ZM14.2161 16.4211L14.3618 16.218L14.3618 16.218L14.2161 16.4211ZM14.1988 16.4073L14.3595 16.2159L14.3595 16.2158L14.1988 16.4073ZM14.1934 16.4028L14.3527 16.2101L14.3524 16.2099L14.1934 16.4028ZM14.1895 16.3999L14.338 16.1987L14.338 16.1987L14.1895 16.3999ZM14.1708 16.3834L14.3502 16.209L14.3433 16.2024L14.1708 16.3834ZM14.1532 16.3656L14.3362 16.1953L14.3361 16.1951L14.1532 16.3656ZM14.1491 16.3618L13.9874 16.5524L13.9874 16.5525L14.1491 16.3618ZM14.1446 16.3576L13.9571 16.523L13.9573 16.5232L14.1446 16.3576ZM10.5251 12.2525L10.3373 12.4175L10.3376 12.4179L10.5251 12.2525ZM10.5597 11.6521L10.3923 11.4664L10.3922 11.4664L10.5597 11.6521ZM11.1535 11.6859L11.3411 11.5206L11.3407 11.5202L11.1535 11.6859ZM4.87597 0.854351C4.86107 0.85579 4.84454 0.857799 4.82676 0.860858L4.91155 1.35362C4.91436 1.35313 4.91824 1.3526 4.92405 1.35203L4.87597 0.854351ZM4.92129 0.851284C4.90279 0.851815 4.88636 0.853346 4.87595 0.854353L4.92407 1.35203C4.93267 1.3512 4.93502 1.3511 4.93565 1.35108L4.92129 0.851284ZM4.89759 0.853252C4.8961 0.853472 4.89884 0.853051 4.9022 0.852657C4.90602 0.852211 4.91266 0.85154 4.92105 0.851291L4.93588 1.35107C4.94614 1.35077 4.95461 1.34994 4.96025 1.34928C4.96544 1.34867 4.96998 1.34798 4.97029 1.34794L4.89759 0.853252ZM4.9401 0.849999C4.92738 0.849999 4.91687 0.850896 4.90984 0.851665C4.9034 0.852367 4.89779 0.853223 4.89749 0.853268L4.9704 1.34792C4.97212 1.34767 4.96853 1.34823 4.96414 1.34871C4.95915 1.34925 4.95071 1.35 4.9401 1.35V0.849999ZM4.98271 0.853268C4.98241 0.853224 4.9768 0.852368 4.97036 0.851665C4.96333 0.850896 4.95281 0.849999 4.9401 0.849999V1.35C4.92949 1.35 4.92104 1.34925 4.91605 1.34871C4.91165 1.34823 4.90807 1.34767 4.9098 1.34792L4.98271 0.853268ZM4.95914 0.851291C4.96753 0.85154 4.97417 0.852211 4.97799 0.852657C4.98136 0.853051 4.98409 0.853472 4.9826 0.853252L4.9099 1.34794C4.91021 1.34798 4.91476 1.34867 4.91994 1.34928C4.92558 1.34994 4.93405 1.35077 4.94431 1.35107L4.95914 0.851291ZM5.00426 0.854357C4.99389 0.853354 4.97742 0.851812 4.95885 0.851283L4.94459 1.35108C4.94459 1.35108 4.94478 1.35108 4.94523 1.35111C4.94569 1.35113 4.94636 1.35118 4.94731 1.35125C4.94934 1.3514 4.95196 1.35163 4.95611 1.35203L5.00426 0.854357ZM5.05334 0.860849C5.03565 0.85781 5.0192 0.855805 5.00431 0.854362L4.95605 1.35203C4.96188 1.35259 4.9658 1.35314 4.96867 1.35363L5.05334 0.860849ZM5.05679 0.861439L5.05312 0.860812L4.96889 1.35367L4.97255 1.35429L5.05679 0.861439ZM5.09123 0.868178C5.07616 0.864667 5.06214 0.862351 5.05671 0.861425L4.97263 1.35431C4.97628 1.35493 4.97774 1.35518 4.9789 1.3554C4.97983 1.35557 4.97924 1.35548 4.97775 1.35513L5.09123 0.868178ZM5.12687 0.877954C5.12157 0.87635 5.1073 0.871937 5.09142 0.868224L4.97756 1.35509C4.97582 1.35468 4.97506 1.35444 4.97588 1.35468C4.97694 1.35498 4.9783 1.35539 4.98196 1.35649L5.12687 0.877954ZM5.13098 0.879195C5.12985 0.878857 5.12865 0.878496 5.12688 0.877959L4.98194 1.35649C4.9835 1.35696 4.98564 1.35761 4.98786 1.35827L5.13098 0.879195ZM5.17945 0.89565C5.16209 0.888962 5.14583 0.883643 5.13115 0.879247L4.98768 1.35822C4.99338 1.35993 4.99707 1.36121 4.99967 1.36221L5.17945 0.89565ZM5.18328 0.897104C5.18134 0.896372 5.18031 0.895983 5.17939 0.895629L4.99973 1.36224C5.00238 1.36326 5.00492 1.36422 5.00655 1.36483L5.18328 0.897104ZM5.21557 0.910323C5.20124 0.9038 5.1878 0.898813 5.18332 0.897121L5.0065 1.36481C5.00971 1.36603 5.01065 1.36639 5.01127 1.36663C5.01166 1.36679 5.01048 1.36633 5.00841 1.36539L5.21557 0.910323ZM5.24858 0.927014C5.24423 0.924653 5.23061 0.917125 5.21503 0.910079L5.00895 1.36563C5.00648 1.36452 5.00508 1.36377 5.00534 1.36391C5.00584 1.36417 5.00667 1.36461 5.00984 1.36634L5.24858 0.927014ZM5.25279 0.929289C5.25192 0.928828 5.25088 0.928265 5.24855 0.927001L5.00987 1.36635C5.01182 1.36741 5.01506 1.36918 5.01851 1.371L5.25279 0.929289ZM5.29596 0.954193C5.2803 0.94431 5.26566 0.936139 5.25308 0.929444L5.01821 1.37085C5.02385 1.37385 5.02705 1.37573 5.02904 1.37699L5.29596 0.954193ZM5.29957 0.956471C5.29814 0.955573 5.29718 0.954967 5.29626 0.954388L5.02874 1.3768C5.03051 1.37792 5.03224 1.379 5.03349 1.37979L5.29957 0.956471ZM5.32878 0.975878C5.31614 0.966791 5.30405 0.959288 5.2996 0.956491L5.03346 1.37978C5.03652 1.38169 5.03762 1.3824 5.03846 1.38294C5.0391 1.38336 5.03842 1.38293 5.037 1.38191L5.32878 0.975878ZM5.36075 1.00107C5.35645 0.997457 5.3435 0.986417 5.32843 0.97563L5.03735 1.38216C5.03515 1.38059 5.03401 1.37965 5.03447 1.38002C5.03514 1.38056 5.0361 1.38136 5.03923 1.38399L5.36075 1.00107ZM5.36473 1.0044C5.36382 1.00364 5.36278 1.00277 5.36078 1.00109L5.0392 1.38396C5.04089 1.38538 5.04355 1.38761 5.04635 1.38992L5.36473 1.0044ZM5.35155 0.994404C5.34999 0.993353 5.35146 0.994328 5.35333 0.995651C5.35551 0.997197 5.35964 1.0002 5.36472 1.00439L5.04636 1.38994C5.05964 1.4009 5.07225 1.40913 5.07296 1.4096L5.35155 0.994404ZM5.38785 1.02245C5.36988 1.00622 5.35218 0.994827 5.35159 0.994431L5.07292 1.40957C5.0749 1.4109 5.07247 1.40931 5.0695 1.40715C5.06606 1.40465 5.05995 1.40004 5.05273 1.39352L5.38785 1.02245ZM5.41707 1.05326C5.41818 1.05459 5.4191 1.05574 5.41837 1.05483C5.41809 1.05449 5.41628 1.05225 5.41413 1.04969C5.40972 1.04446 5.40047 1.03379 5.38736 1.02201L5.05322 1.39396C5.04205 1.38393 5.03453 1.37515 5.03176 1.37187C5.03043 1.37029 5.02942 1.36903 5.02995 1.36968C5.03001 1.36976 5.03174 1.3719 5.03366 1.3742L5.41707 1.05326ZM5.40026 1.03537C5.40898 1.04369 5.41497 1.05075 5.41713 1.05334L5.0336 1.37413C5.03722 1.37845 5.04472 1.38722 5.05512 1.39715L5.40026 1.03537ZM5.42847 1.06382C5.41888 1.05354 5.40937 1.04403 5.39993 1.03506L5.05545 1.39746C5.05845 1.40031 5.06089 1.40277 5.06301 1.40505L5.42847 1.06382ZM5.41154 1.04753C5.41039 1.04656 5.41253 1.04835 5.41508 1.05064C5.41796 1.05324 5.42289 1.05782 5.42866 1.06402L5.06283 1.40485C5.06988 1.41242 5.07614 1.41828 5.0804 1.42211C5.08431 1.42564 5.08786 1.42862 5.08811 1.42884L5.41154 1.04753ZM5.44167 1.07686C5.43336 1.06746 5.42585 1.06027 5.42071 1.05558C5.416 1.05128 5.41172 1.04769 5.41151 1.04751L5.08814 1.42886C5.08948 1.43 5.08675 1.42772 5.08356 1.4248C5.07993 1.42149 5.07388 1.41574 5.06695 1.4079L5.44167 1.07686ZM9.06134 5.18212L5.44183 1.07704L5.06679 1.40772L8.68631 5.5128L9.06134 5.18212ZM9.19767 5.84208C9.27215 5.61357 9.22049 5.3619 9.06102 5.18175L8.68664 5.51317C8.72804 5.55994 8.74208 5.62639 8.72229 5.68713L9.19767 5.84208ZM8.69661 6.29292C8.93275 6.24353 9.12312 6.0708 9.19767 5.84208L8.72229 5.68713C8.70256 5.74764 8.65305 5.79121 8.59424 5.80351L8.69661 6.29292ZM8.05758 6.07909C8.21665 6.26014 8.4603 6.34235 8.69661 6.29292L8.59424 5.80351C8.5356 5.81578 8.47417 5.7957 8.4332 5.74907L8.05758 6.07909ZM5.17359 2.8082L8.05787 6.07942L8.43291 5.74874L5.54863 2.47752L5.17359 2.8082ZM5.61111 16.0743L5.61111 2.64286H5.11111L5.11111 16.0743H5.61111ZM4.94009 16.75C5.31328 16.75 5.61111 16.4449 5.61111 16.0743H5.11111C5.11111 16.174 5.03194 16.25 4.94009 16.25V16.75ZM4.26908 16.0743C4.26908 16.4449 4.56691 16.75 4.94009 16.75V16.25C4.84824 16.25 4.76908 16.174 4.76908 16.0743H4.26908ZM4.26908 2.64283L4.26908 16.0743H4.76908L4.76908 2.64283H4.26908ZM1.82221 6.07941L4.7066 2.80817L4.33157 2.47749L1.44718 5.74873L1.82221 6.07941ZM0.873395 6.13355C1.15013 6.38307 1.57511 6.35855 1.82189 6.07978L1.4475 5.74836C1.38455 5.81948 1.2781 5.82522 1.20821 5.76221L0.873395 6.13355ZM0.818453 5.18244C0.574122 5.46053 0.598253 5.88547 0.873395 6.13355L1.20821 5.76221C1.13674 5.69776 1.12996 5.58543 1.19407 5.51246L0.818453 5.18244ZM4.43836 1.07704L0.818744 5.18211L1.19378 5.5128L4.81339 1.40772L4.43836 1.07704ZM4.46871 1.04747C4.46849 1.04766 4.46418 1.05127 4.45945 1.0556C4.45428 1.06032 4.44673 1.06755 4.43839 1.077L4.81335 1.40776C4.8064 1.41564 4.80032 1.42143 4.79667 1.42477C4.79345 1.42771 4.7907 1.43 4.79203 1.42887L4.46871 1.04747ZM4.45149 1.06406C4.4573 1.05782 4.46226 1.0532 4.46518 1.05058C4.46775 1.04826 4.46991 1.04645 4.46877 1.04742L4.79197 1.42892C4.79222 1.42871 4.79579 1.42571 4.79973 1.42216C4.80401 1.41831 4.81031 1.41241 4.8174 1.4048L4.45149 1.06406ZM4.46827 1.04651C4.46285 1.0521 4.45719 1.05793 4.45143 1.06412L4.81746 1.40474C4.81908 1.403 4.82091 1.4011 4.82735 1.39445L4.46827 1.04651ZM4.47991 1.03447C4.47523 1.03932 4.47152 1.04316 4.46826 1.04652L4.82736 1.39444C4.83061 1.39108 4.83472 1.38684 4.83988 1.38149L4.47991 1.03447ZM4.52846 0.994522C4.52788 0.99491 4.51036 1.0062 4.49256 1.02224L4.82723 1.39372C4.8201 1.40014 4.81407 1.40469 4.81068 1.40716C4.80776 1.40927 4.80537 1.41085 4.80736 1.40951L4.52846 0.994522ZM4.5155 1.00435C4.52051 1.00022 4.52459 0.997254 4.52674 0.995728C4.52859 0.994421 4.53004 0.993463 4.52849 0.994501L4.80733 1.40953C4.80807 1.40903 4.82055 1.40088 4.83372 1.39001L4.5155 1.00435ZM4.51927 1.0012C4.51737 1.00279 4.51627 1.00371 4.51529 1.00452L4.83393 1.38984C4.83657 1.38766 4.83907 1.38556 4.84077 1.38413L4.51927 1.0012ZM4.55164 0.975704C4.5366 0.986485 4.52369 0.997489 4.51926 1.0012L4.84077 1.38413C4.84392 1.38149 4.84494 1.38064 4.84565 1.38007C4.84616 1.37966 4.8451 1.38053 4.84301 1.38203L4.55164 0.975704ZM4.58117 0.956112C4.57658 0.958993 4.56427 0.966619 4.5514 0.975875L4.84325 1.38186C4.84184 1.38287 4.84117 1.38329 4.84184 1.38285C4.84271 1.38229 4.84386 1.38156 4.84697 1.37961L4.58117 0.956112ZM4.58415 0.95424C4.58329 0.954778 4.58237 0.955356 4.58122 0.956079L4.84692 1.37964C4.84814 1.37887 4.8496 1.37796 4.85113 1.37699L4.58415 0.95424ZM4.62718 0.929407C4.61474 0.936022 4.59993 0.94426 4.58401 0.954325L4.85126 1.37691C4.85305 1.37578 4.85613 1.37396 4.86196 1.37086L4.62718 0.929407ZM4.63131 0.927172C4.62906 0.928393 4.62803 0.928951 4.62715 0.92942L4.86198 1.37084C4.86524 1.36911 4.86832 1.36743 4.87018 1.36642L4.63131 0.927172ZM4.66529 0.910018C4.6495 0.917147 4.63569 0.924787 4.63129 0.927179L4.87019 1.36642C4.87341 1.36466 4.87426 1.36421 4.87477 1.36395C4.87504 1.3638 4.87362 1.36456 4.8711 1.36569L4.66529 0.910018ZM4.69688 0.897116C4.69236 0.898826 4.67903 0.903778 4.66484 0.910218L4.87155 1.36549C4.86957 1.36639 4.86847 1.36681 4.86893 1.36663C4.86961 1.36636 4.8706 1.36598 4.87382 1.36476L4.69688 0.897116ZM4.70078 0.895632C4.69982 0.896002 4.69881 0.896385 4.69681 0.897141L4.87388 1.36474C4.8754 1.36416 4.87791 1.36321 4.88047 1.36223L4.70078 0.895632ZM4.7492 0.879189C4.73388 0.883765 4.71782 0.889094 4.70107 0.895522L4.88019 1.36234C4.8834 1.3611 4.88726 1.35978 4.89229 1.35828L4.7492 0.879189ZM4.75369 0.877836C4.75183 0.8784 4.75059 0.878776 4.74943 0.879119L4.89206 1.35835C4.8945 1.35762 4.89683 1.35691 4.89855 1.35639L4.75369 0.877836ZM4.78909 0.868146C4.77316 0.87185 4.75888 0.876266 4.7537 0.877835L4.89854 1.35639C4.90214 1.35531 4.90341 1.35493 4.90436 1.35466C4.90508 1.35445 4.90418 1.35472 4.9023 1.35516L4.78909 0.868146ZM4.82443 0.861255C4.81874 0.86222 4.80434 0.864586 4.78887 0.868197L4.90252 1.35511C4.90107 1.35545 4.90052 1.35553 4.90154 1.35534C4.90277 1.35511 4.90432 1.35485 4.90809 1.35421L4.82443 0.861255ZM4.82719 0.860785L4.82429 0.861279L4.90822 1.35418L4.91112 1.35369L4.82719 0.860785ZM13.7878 1.52569L13.7878 14.9571H14.2878L14.2878 1.52569H13.7878ZM14.4588 0.849999C14.0857 0.849999 13.7878 1.15513 13.7878 1.52569H14.2878C14.2878 1.42605 14.367 1.35 14.4588 1.35V0.849999ZM15.1299 1.52569C15.1299 1.15513 14.832 0.849999 14.4588 0.849999V1.35C14.5507 1.35 14.6299 1.42605 14.6299 1.52569H15.1299ZM15.1299 14.9572L15.1299 1.52569H14.6299L14.6299 14.9572H15.1299ZM17.5767 11.5206L14.6923 14.7918L15.0674 15.1225L17.9518 11.8513L17.5767 11.5206ZM18.2155 11.3071C17.9792 11.2577 17.7355 11.3399 17.5764 11.5209L17.9521 11.8509C17.993 11.8043 18.0545 11.7842 18.1131 11.7965L18.2155 11.3071ZM18.7165 11.7579C18.642 11.5292 18.4516 11.3565 18.2155 11.3071L18.1131 11.7965C18.1719 11.8088 18.2214 11.8524 18.2411 11.9129L18.7165 11.7579ZM18.5799 12.4183C18.7393 12.2381 18.791 11.9864 18.7165 11.7579L18.2411 11.9129C18.2609 11.9736 18.2469 12.0401 18.2055 12.0868L18.5799 12.4183ZM14.9606 16.523L18.5802 12.4179L18.2052 12.0872L14.5855 16.1923L14.9606 16.523ZM14.9302 16.5525C14.9304 16.5524 14.9347 16.5487 14.9395 16.5444C14.9446 16.5397 14.9522 16.5325 14.9605 16.523L14.5856 16.1922C14.5925 16.1844 14.5986 16.1786 14.6023 16.1752C14.6055 16.1723 14.6083 16.17 14.6069 16.1711L14.9302 16.5525ZM14.9474 16.536C14.9416 16.5422 14.9367 16.5468 14.9338 16.5494C14.9312 16.5517 14.9291 16.5535 14.9302 16.5525L14.6069 16.1711C14.6067 16.1713 14.6031 16.1743 14.5992 16.1778C14.5949 16.1817 14.5886 16.1876 14.5816 16.1952L14.9474 16.536ZM14.9187 16.5649C14.9281 16.556 14.9376 16.5465 14.9472 16.5362L14.5818 16.195C14.5796 16.1972 14.5772 16.1997 14.5742 16.2025L14.9187 16.5649ZM14.9372 16.5451C14.9381 16.5439 14.9361 16.5464 14.9336 16.5493C14.9308 16.5526 14.9258 16.5582 14.919 16.5646L14.5738 16.2029C14.5658 16.2106 14.5596 16.2174 14.5556 16.222C14.552 16.2262 14.5489 16.2301 14.5487 16.2303L14.9372 16.5451ZM14.9063 16.5778C14.9163 16.5688 14.9239 16.5606 14.9288 16.555C14.9333 16.5499 14.9371 16.5452 14.9372 16.5451L14.5487 16.2303C14.5476 16.2316 14.5501 16.2285 14.5534 16.2248C14.557 16.2207 14.5632 16.2139 14.5718 16.2062L14.9063 16.5778ZM14.8704 16.6055C14.871 16.6051 14.8885 16.5938 14.9063 16.5778L14.5718 16.2062C14.5789 16.1998 14.5849 16.1953 14.5883 16.1928C14.5912 16.1907 14.5936 16.1891 14.5916 16.1904L14.8704 16.6055ZM14.8835 16.5956C14.8784 16.5998 14.8743 16.6027 14.8722 16.6043C14.8703 16.6056 14.8689 16.6066 14.8704 16.6055L14.5916 16.1905C14.5909 16.191 14.5783 16.1991 14.5651 16.2101L14.8835 16.5956ZM14.8796 16.5988C14.8815 16.5972 14.8826 16.5963 14.8836 16.5955L14.565 16.2101C14.5623 16.2124 14.5597 16.2145 14.558 16.216L14.8796 16.5988ZM14.8472 16.6244C14.8623 16.6135 14.8752 16.6025 14.8796 16.5988L14.558 16.216C14.5549 16.2186 14.5539 16.2194 14.5532 16.22C14.5528 16.2203 14.5539 16.2194 14.5561 16.2179L14.8472 16.6244ZM14.8184 16.6435C14.8229 16.6407 14.8349 16.6332 14.8475 16.6241L14.5557 16.2181C14.5572 16.2171 14.5579 16.2166 14.5572 16.217C14.5564 16.2176 14.5553 16.2183 14.5523 16.2202L14.8184 16.6435ZM14.8151 16.6456C14.816 16.645 14.817 16.6444 14.8184 16.6435L14.5523 16.2202C14.551 16.221 14.5492 16.2221 14.5474 16.2233L14.8151 16.6456ZM14.7718 16.6706C14.7844 16.6639 14.7991 16.6557 14.8147 16.6458L14.5478 16.223C14.5458 16.2243 14.5426 16.2262 14.537 16.2292L14.7718 16.6706ZM14.7673 16.673C14.7696 16.6717 14.7706 16.6712 14.7715 16.6707L14.5373 16.229C14.5338 16.2308 14.5306 16.2326 14.5286 16.2337L14.7673 16.673ZM14.7338 16.6899C14.7494 16.6829 14.7629 16.6754 14.7673 16.673L14.5286 16.2337C14.5254 16.2354 14.5246 16.2358 14.5241 16.2361C14.5238 16.2362 14.5252 16.2355 14.5277 16.2344L14.7338 16.6899ZM14.702 16.7029C14.7066 16.7012 14.72 16.6962 14.7343 16.6897L14.5272 16.2346C14.5293 16.2337 14.5304 16.2332 14.53 16.2334C14.5294 16.2336 14.5284 16.234 14.5252 16.2352L14.702 16.7029ZM14.6982 16.7044C14.6991 16.704 14.7002 16.7036 14.702 16.7029L14.5252 16.2352C14.5236 16.2358 14.5211 16.2368 14.5185 16.2378L14.6982 16.7044ZM14.6499 16.7207C14.6646 16.7163 14.6808 16.711 14.6981 16.7044L14.5185 16.2378C14.5158 16.2388 14.5121 16.2401 14.5064 16.2418L14.6499 16.7207ZM14.6455 16.7221C14.6474 16.7215 14.6485 16.7212 14.6496 16.7208L14.5067 16.2417C14.5044 16.2424 14.5021 16.2431 14.5005 16.2436L14.6455 16.7221ZM14.61 16.7318C14.6259 16.7281 14.6403 16.7237 14.6455 16.7221L14.5005 16.2436C14.4969 16.2447 14.4956 16.2451 14.4946 16.2453C14.4938 16.2456 14.4947 16.2453 14.4965 16.2449L14.61 16.7318ZM14.5755 16.7386C14.5809 16.7376 14.5949 16.7353 14.61 16.7318L14.4965 16.2449C14.498 16.2445 14.4986 16.2444 14.4977 16.2446C14.4965 16.2448 14.4951 16.2451 14.4914 16.2457L14.5755 16.7386ZM14.5723 16.7391C14.5732 16.739 14.5742 16.7388 14.5755 16.7386L14.4914 16.2457C14.4902 16.2459 14.4887 16.2461 14.4872 16.2464L14.5723 16.7391ZM14.523 16.7456C14.5379 16.7442 14.5544 16.7422 14.5722 16.7391L14.4873 16.2464C14.4845 16.2469 14.4807 16.2474 14.4749 16.248L14.523 16.7456ZM14.4776 16.7487C14.4962 16.7482 14.5126 16.7466 14.523 16.7456L14.4748 16.248C14.4707 16.2484 14.4681 16.2486 14.4661 16.2488C14.4651 16.2488 14.4644 16.2489 14.464 16.2489C14.4635 16.2489 14.4633 16.2489 14.4634 16.2489L14.4776 16.7487ZM14.5014 16.7467C14.5029 16.7465 14.5001 16.7469 14.4968 16.7473C14.4929 16.7478 14.4863 16.7485 14.4779 16.7487L14.4631 16.2489C14.4528 16.2492 14.4443 16.2501 14.4387 16.2507C14.4335 16.2513 14.4289 16.252 14.4286 16.2521L14.5014 16.7467ZM14.4588 16.75C14.4716 16.75 14.4821 16.7491 14.4891 16.7483C14.4955 16.7476 14.5011 16.7468 14.5014 16.7467L14.4286 16.2521C14.4269 16.2523 14.4304 16.2518 14.4348 16.2513C14.4398 16.2507 14.4482 16.25 14.4588 16.25V16.75ZM14.4163 16.7467C14.4166 16.7468 14.4222 16.7476 14.4286 16.7483C14.4356 16.7491 14.4461 16.75 14.4588 16.75V16.25C14.4695 16.25 14.4779 16.2507 14.4829 16.2513C14.4873 16.2518 14.4908 16.2523 14.4891 16.2521L14.4163 16.7467ZM14.4398 16.7487C14.4314 16.7485 14.4248 16.7478 14.4209 16.7473C14.4176 16.7469 14.4148 16.7465 14.4163 16.7467L14.4891 16.2521C14.4888 16.252 14.4842 16.2513 14.479 16.2507C14.4734 16.2501 14.4649 16.2492 14.4546 16.2489L14.4398 16.7487ZM14.3946 16.7456C14.405 16.7466 14.4215 16.7482 14.4401 16.7487L14.4543 16.2489C14.4544 16.2489 14.4542 16.2489 14.4537 16.2489C14.4532 16.2489 14.4526 16.2488 14.4516 16.2488C14.4496 16.2486 14.447 16.2484 14.4429 16.248L14.3946 16.7456ZM14.3456 16.7392C14.3633 16.7422 14.3798 16.7442 14.3946 16.7456L14.4429 16.248C14.437 16.2474 14.4331 16.2469 14.4302 16.2464L14.3456 16.7392ZM14.3431 16.7387L14.346 16.7392L14.4299 16.2463L14.4269 16.2458L14.3431 16.7387ZM14.3076 16.7318C14.3231 16.7354 14.3375 16.7378 14.3431 16.7387L14.4269 16.2458C14.4231 16.2452 14.4215 16.2449 14.4203 16.2447C14.4193 16.2445 14.4198 16.2445 14.4213 16.2449L14.3076 16.7318ZM14.2723 16.7221C14.2776 16.7237 14.2918 16.7281 14.3076 16.7318L14.4213 16.2449C14.423 16.2453 14.4238 16.2455 14.423 16.2453C14.422 16.245 14.4207 16.2446 14.4171 16.2435L14.2723 16.7221ZM14.2682 16.7209C14.2693 16.7212 14.2705 16.7216 14.2723 16.7221L14.4171 16.2435C14.4155 16.243 14.4132 16.2424 14.4108 16.2417L14.2682 16.7209ZM14.2198 16.7045C14.2366 16.7109 14.2527 16.7162 14.2679 16.7208L14.411 16.2417C14.406 16.2402 14.4021 16.2389 14.399 16.2377L14.2198 16.7045ZM14.2156 16.7029C14.2175 16.7036 14.2186 16.704 14.2195 16.7044L14.3992 16.2378C14.3967 16.2368 14.3942 16.2359 14.3926 16.2352L14.2156 16.7029ZM14.1836 16.6898C14.1978 16.6962 14.2111 16.7012 14.2156 16.7029L14.3926 16.2352C14.3894 16.234 14.3884 16.2336 14.3877 16.2334C14.3872 16.2332 14.3883 16.2336 14.3903 16.2345L14.1836 16.6898ZM14.1502 16.6729C14.1545 16.6753 14.1683 16.6829 14.184 16.69L14.3899 16.2343C14.3924 16.2354 14.3938 16.2362 14.3936 16.2361C14.3931 16.2358 14.3922 16.2354 14.389 16.2336L14.1502 16.6729ZM14.1461 16.6707C14.1469 16.6711 14.1479 16.6716 14.1502 16.6729L14.3891 16.2336C14.3872 16.2326 14.384 16.2309 14.3806 16.2291L14.1461 16.6707ZM14.1027 16.6456C14.1187 16.6557 14.1335 16.664 14.146 16.6706L14.3807 16.2291C14.3749 16.226 14.3718 16.2242 14.3701 16.2231L14.1027 16.6456ZM14.1 16.644C14.1012 16.6447 14.1021 16.6453 14.103 16.6458L14.3698 16.223C14.3684 16.2221 14.367 16.2212 14.366 16.2205L14.1 16.644ZM14.0703 16.6242C14.0831 16.6334 14.0954 16.641 14.1001 16.644L14.3659 16.2205C14.3628 16.2185 14.3616 16.2178 14.3607 16.2172C14.3599 16.2167 14.3605 16.2171 14.3618 16.218L14.0703 16.6242ZM14.038 16.5988C14.0424 16.6025 14.0554 16.6135 14.0704 16.6243L14.3618 16.218C14.3639 16.2195 14.3649 16.2203 14.3644 16.2199C14.3637 16.2194 14.3627 16.2185 14.3595 16.2159L14.038 16.5988ZM14.0341 16.5955C14.035 16.5963 14.0361 16.5972 14.038 16.5988L14.3595 16.2158C14.3578 16.2145 14.3553 16.2123 14.3527 16.2101L14.0341 16.5955ZM14.0411 16.6011C14.0421 16.6018 14.0414 16.6013 14.0405 16.6006C14.0393 16.5997 14.0371 16.598 14.0343 16.5957L14.3524 16.2099C14.3451 16.2039 14.3383 16.199 14.338 16.1987L14.0411 16.6011ZM13.9916 16.5577C14.0132 16.5799 14.0298 16.5927 14.0411 16.6011L14.338 16.1987C14.3366 16.1977 14.3401 16.2003 14.3441 16.2036C14.3478 16.2068 14.3499 16.2089 14.3501 16.2091L13.9916 16.5577ZM13.9702 16.5359C13.9796 16.546 13.989 16.5554 13.9983 16.5643L14.3433 16.2024C14.3405 16.1998 14.3382 16.1974 14.3362 16.1953L13.9702 16.5359ZM13.9874 16.5525C13.9885 16.5534 13.9864 16.5516 13.9839 16.5494C13.981 16.5468 13.9761 16.5422 13.9703 16.536L14.3361 16.1951C14.329 16.1876 14.3228 16.1817 14.3185 16.1779C14.3146 16.1744 14.3111 16.1714 14.3108 16.1712L13.9874 16.5525ZM13.9573 16.5232C13.9656 16.5326 13.9731 16.5397 13.9782 16.5444C13.9829 16.5487 13.9872 16.5523 13.9874 16.5524L14.3109 16.1712C14.3095 16.17 14.3122 16.1723 14.3154 16.1752C14.319 16.1785 14.325 16.1842 14.3319 16.192L13.9573 16.5232ZM10.3376 12.4179L13.9571 16.523L14.3321 16.1923L10.7126 12.0872L10.3376 12.4179ZM10.3922 11.4664C10.1171 11.7145 10.093 12.1395 10.3373 12.4175L10.7129 12.0875C10.6488 12.0146 10.6556 11.9022 10.7271 11.8378L10.3922 11.4664ZM11.3407 11.5202C11.094 11.2414 10.669 11.2169 10.3923 11.4664L10.7271 11.8378C10.797 11.7748 10.9034 11.7805 10.9664 11.8516L11.3407 11.5202ZM14.2254 14.7918L11.3411 11.5206L10.966 11.8513L13.8503 15.1225L14.2254 14.7918Z" fill="#2669F5"/>
</svg>
