<svg width="24" height="24" viewBox="0 0 24 24" fill="none" xmlns="http://www.w3.org/2000/svg">
<circle cx="12" cy="12" r="12" fill="#ECEFF3"/>
<path fill-rule="evenodd" clip-rule="evenodd" d="M12 6.99967C13.808 6.99967 15.3919 7.9588 16.2705 9.39587L14.5 11.1663H19.5V6.16634L17.4744 8.19194C16.2695 6.4638 14.2668 5.33301 12 5.33301C8.89279 5.33301 6.28193 7.45763 5.54167 10.333H7.28327C7.96985 8.39102 9.8224 6.99967 12 6.99967ZM12 16.9997C10.1922 16.9997 8.60846 16.0402 7.73022 14.6028L9.5 12.833H4.5V17.833L6.52644 15.8066C7.73095 17.5352 9.73338 18.6663 12 18.6663C15.1064 18.6663 17.7166 16.5417 18.4566 13.6663H16.7155C16.0291 15.6083 14.177 16.9997 12 16.9997Z" fill="black"/>
</svg>
