<svg width="48" height="48" viewBox="0 0 48 48" fill="none" xmlns="http://www.w3.org/2000/svg">
<g filter="url(#filter0_d_676_1410)">
<circle cx="28" cy="22" r="12" fill="#2669F5"/>
</g>
<path fill-rule="evenodd" clip-rule="evenodd" d="M28 16.9997C29.808 16.9997 31.3919 17.9588 32.2705 19.3959L30.5 21.1663H35.5V16.1663L33.4744 18.1919C32.2695 16.4638 30.2668 15.333 28 15.333C24.8928 15.333 22.2819 17.4576 21.5417 20.333H23.2833C23.9698 18.391 25.8224 16.9997 28 16.9997ZM28 26.9997C26.1922 26.9997 24.6085 26.0402 23.7302 24.6028L25.5 22.833H20.5V27.833L22.5264 25.8066C23.731 27.5352 25.7334 28.6663 28 28.6663C31.1064 28.6663 33.7166 26.5417 34.4566 23.6663H32.7155C32.0291 25.6083 30.177 26.9997 28 26.9997Z" fill="white"/>
<defs>
<filter id="filter0_d_676_1410" x="0" y="0" width="48" height="48" filterUnits="userSpaceOnUse" color-interpolation-filters="sRGB">
<feFlood flood-opacity="0" result="BackgroundImageFix"/>
<feColorMatrix in="SourceAlpha" type="matrix" values="0 0 0 0 0 0 0 0 0 0 0 0 0 0 0 0 0 0 127 0" result="hardAlpha"/>
<feOffset dx="-4" dy="2"/>
<feGaussianBlur stdDeviation="6"/>
<feComposite in2="hardAlpha" operator="out"/>
<feColorMatrix type="matrix" values="0 0 0 0 0.0352941 0 0 0 0 0.0862745 0 0 0 0 0.180392 0 0 0 0.35 0"/>
<feBlend mode="normal" in2="BackgroundImageFix" result="effect1_dropShadow_676_1410"/>
<feBlend mode="normal" in="SourceGraphic" in2="effect1_dropShadow_676_1410" result="shape"/>
</filter>
</defs>
</svg>
