<svg width="24" height="24" viewBox="0 0 24 24" fill="none" xmlns="http://www.w3.org/2000/svg">
<path d="M19.9442 7.92615C19.9569 8.10381 19.9569 8.2815 19.9569 8.45916C19.9569 13.8779 15.8326 20.1216 8.29444 20.1216C5.97209 20.1216 3.81473 19.449 2 18.2815C2.32996 18.3196 2.64719 18.3323 2.98985 18.3323C4.90607 18.3323 6.67006 17.6851 8.0787 16.581C6.27666 16.5429 4.7665 15.3627 4.24618 13.7384C4.50001 13.7764 4.7538 13.8018 5.02032 13.8018C5.38833 13.8018 5.75638 13.751 6.099 13.6622C4.22083 13.2815 2.81215 11.6318 2.81215 9.63936V9.58862C3.35782 9.89319 3.99239 10.0835 4.66493 10.1089C3.56087 9.37283 2.83754 8.1165 2.83754 6.69517C2.83754 5.93376 3.04055 5.23579 3.3959 4.62664C5.41369 7.11396 8.4467 8.7383 11.8477 8.916C11.7843 8.61143 11.7462 8.2942 11.7462 7.97693C11.7462 5.71802 13.5736 3.87793 15.8452 3.87793C17.0254 3.87793 18.0914 4.37285 18.8401 5.17235C19.7665 4.99469 20.6548 4.65203 21.4416 4.1825C21.137 5.1343 20.4898 5.9338 19.6396 6.44138C20.4645 6.35259 21.264 6.12411 22 5.80688C21.4417 6.61903 20.7437 7.34236 19.9442 7.92615Z" fill="#7C8497"/>
</svg>
