<svg width="24" height="24" viewBox="0 0 24 24" fill="none" xmlns="http://www.w3.org/2000/svg">
<path d="M15.7524 13.1785L15.7524 13.1785L15.7519 13.1727C15.7269 12.9109 15.826 12.6643 16.0034 12.4912L16.0035 12.4913L16.0124 12.4822C16.1643 12.3262 16.3748 12.2334 16.6141 12.2334H17.9808C18.0878 12.2334 18.1675 12.3194 18.1675 12.4134V13.7867C18.1675 13.8808 18.0878 13.9667 17.9808 13.9667H16.6941C16.1947 13.9667 15.7877 13.6019 15.7524 13.1785Z" fill="#2669F5" stroke="#2669F5"/>
<path d="M13.7558 13.3495L13.7559 13.3506C13.8866 14.8368 15.1833 15.9668 16.694 15.9668H16.7674C16.531 16.9033 15.68 17.6001 14.6673 17.6001H8.00065C6.80346 17.6001 5.83398 16.6306 5.83398 15.4334V10.7668C5.83398 9.56957 6.80346 8.6001 8.00065 8.6001H14.6673C15.6745 8.6001 16.5302 9.29744 16.7673 10.2334H16.614C15.8423 10.2334 15.1214 10.5388 14.6002 11.0667C13.9903 11.6701 13.6831 12.5014 13.7558 13.3495ZM8.66732 12.4334H12.6673C13.2168 12.4334 13.6673 11.9829 13.6673 11.4334C13.6673 10.884 13.2168 10.4334 12.6673 10.4334H8.66732C8.1222 10.4334 7.66732 10.873 7.66732 11.4334C7.66732 11.9939 8.1222 12.4334 8.66732 12.4334Z" fill="#2669F5" stroke="#2669F5"/>
<path d="M11.5598 6.3999C11.9279 6.3999 12.261 6.47241 12.5433 6.5999H8.01978C7.49779 6.5999 6.99636 6.69688 6.53496 6.87384C6.8778 6.57836 7.32561 6.3999 7.81311 6.3999H11.5598Z" fill="#2669F5" stroke="#2669F5"/>
<rect x="0.5" y="0.5" width="23" height="23" rx="11.5" stroke="#2669F5"/>
</svg>
