<svg width="20" height="20" viewBox="0 0 20 20" fill="none" xmlns="http://www.w3.org/2000/svg">
<path d="M16.68 5.83325H4.27116C3.9834 5.83325 3.75033 5.60018 3.75033 5.31242C3.75033 5.02466 3.9834 4.79158 4.27116 4.79158H16.7712C17.0589 4.79158 17.292 4.55851 17.292 4.27075C17.292 3.4078 16.5925 2.70825 15.7295 2.70825H3.75033C2.59961 2.70825 1.66699 3.64087 1.66699 4.79158V15.2082C1.66699 16.359 2.59961 17.2916 3.75033 17.2916H16.68C17.5921 17.2916 18.3337 16.5907 18.3337 15.7291V7.39575C18.3337 6.5341 17.5921 5.83325 16.68 5.83325ZM15.2087 12.6041C14.6335 12.6041 14.167 12.1376 14.167 11.5624C14.167 10.9872 14.6335 10.5207 15.2087 10.5207C15.7839 10.5207 16.2503 10.9872 16.2503 11.5624C16.2503 12.1376 15.7839 12.6041 15.2087 12.6041Z" fill="#2669F5"/>
</svg>
