<svg width="21" height="20" viewBox="0 0 21 20" fill="none" xmlns="http://www.w3.org/2000/svg">
<path fill-rule="evenodd" clip-rule="evenodd" d="M2.16666 9.99996C2.16666 14.6023 5.89762 18.3333 10.5 18.3333C15.1024 18.3333 18.8333 14.6023 18.8333 9.99996C18.8333 5.39759 15.1024 1.66663 10.5 1.66663C5.89762 1.66663 2.16666 5.39759 2.16666 9.99996ZM17.1667 9.99996C17.1667 13.6819 14.1819 16.6666 10.5 16.6666C6.81809 16.6666 3.83332 13.6819 3.83332 9.99996C3.83332 6.31806 6.81809 3.33329 10.5 3.33329C14.1819 3.33329 17.1667 6.31806 17.1667 9.99996ZM11.3333 13.3333V15H9.66666V13.3333H11.3333ZM11.3333 11.6666V4.99996H9.66666V11.6666H11.3333Z" fill="#B7BECB"/>
</svg>
