<svg width="57" height="200" viewBox="0 0 57 200" fill="none" xmlns="http://www.w3.org/2000/svg">
<g style="mix-blend-mode:screen" filter="url(#filter0_f_3699_25013)">
<path d="M-43 15.7236C-43 9.24884 -37.732 3.92621 -31.3054 4.71497C-22.7161 5.76917 -14.2906 7.98218 -6.26239 11.3076C5.38487 16.132 15.9678 23.2033 24.8823 32.1178C33.7967 41.0322 40.868 51.6151 45.6924 63.2624C50.5169 74.9097 53 87.3931 53 100C53 112.607 50.5169 125.09 45.6924 136.738C40.868 148.385 33.7967 158.968 24.8822 167.882C15.9678 176.797 5.38484 183.868 -6.26242 188.692C-14.2906 192.018 -22.7161 194.231 -31.3055 195.285C-37.732 196.074 -43 190.751 -43 184.276C-43 177.802 -37.7177 172.649 -31.3273 171.608C-25.8176 170.71 -20.4169 169.176 -15.2353 167.03C-6.43277 163.384 1.5654 158.04 8.30255 151.303C15.0397 144.565 20.3839 136.567 24.03 127.765C27.6761 118.962 29.5528 109.528 29.5528 100C29.5528 90.4722 27.6761 81.0378 24.03 72.2353C20.3839 63.4328 15.0397 55.4346 8.30257 48.6974C1.56541 41.9603 -6.43274 36.6161 -15.2353 32.97C-20.4169 30.8237 -25.8175 29.2905 -31.3273 28.3924C-37.7177 27.3507 -43 22.1984 -43 15.7236Z" fill="url(#paint0_linear_3699_25013)" fill-opacity="0.25"/>
</g>
<g style="mix-blend-mode:screen" filter="url(#filter1_f_3699_25013)">
<path d="M-51 45.7162C-51 43.1115 -48.886 40.9841 -46.2867 41.1518C-30.5052 42.1698 -15.5927 48.2745 -4.33096 58.4271C8.04644 69.5856 15 84.7196 15 100.5C15 116.28 8.04646 131.414 -4.33093 142.573C-15.5926 152.725 -30.5051 158.83 -46.2867 159.848C-48.886 160.016 -51 157.888 -51 155.284C-51 152.679 -48.8849 150.586 -46.2879 150.387C-33.2848 149.389 -21.0281 144.286 -11.7293 135.903C-1.31409 126.514 4.53712 113.779 4.53712 100.5C4.53712 87.2212 -1.3141 74.4864 -11.7293 65.0969C-21.0281 56.7139 -33.2848 51.6106 -46.2879 50.6129C-48.885 50.4136 -51 48.3209 -51 45.7162Z" fill="url(#paint1_linear_3699_25013)" fill-opacity="0.25"/>
</g>
<defs>
<filter id="filter0_f_3699_25013" x="-47" y="0.637238" width="104" height="198.726" filterUnits="userSpaceOnUse" color-interpolation-filters="sRGB">
<feFlood flood-opacity="0" result="BackgroundImageFix"/>
<feBlend mode="normal" in="SourceGraphic" in2="BackgroundImageFix" result="shape"/>
<feGaussianBlur stdDeviation="2" result="effect1_foregroundBlur_3699_25013"/>
</filter>
<filter id="filter1_f_3699_25013" x="-55" y="37.1425" width="74" height="126.715" filterUnits="userSpaceOnUse" color-interpolation-filters="sRGB">
<feFlood flood-opacity="0" result="BackgroundImageFix"/>
<feBlend mode="normal" in="SourceGraphic" in2="BackgroundImageFix" result="shape"/>
<feGaussianBlur stdDeviation="2" result="effect1_foregroundBlur_3699_25013"/>
</filter>
<linearGradient id="paint0_linear_3699_25013" x1="-43" y1="4" x2="-43" y2="196" gradientUnits="userSpaceOnUse">
<stop stop-color="#FE6E97"/>
<stop offset="1" stop-color="#F3A508"/>
</linearGradient>
<linearGradient id="paint1_linear_3699_25013" x1="-51" y1="41" x2="-51" y2="160" gradientUnits="userSpaceOnUse">
<stop stop-color="#FE6E97"/>
<stop offset="1" stop-color="#F3A508"/>
</linearGradient>
</defs>
</svg>
