<svg width="639" height="880" viewBox="0 0 639 880" fill="none" xmlns="http://www.w3.org/2000/svg">
<path d="M89.7852 820.769C91.8562 819.844 92.7851 817.416 91.86 815.345C90.9349 813.274 88.506 812.345 86.435 813.27C84.364 814.195 83.4351 816.624 84.3603 818.695C85.2854 820.766 87.7142 821.695 89.7852 820.769Z" fill="#2669F5"/>
<path d="M70.2294 778.07C64.3874 780.73 61.7163 787.636 64.2508 793.533C64.2742 793.587 64.4438 793.968 64.6661 794.466C64.992 795.195 65.5944 795.765 66.3407 796.051C67.087 796.336 67.9161 796.313 68.6457 795.988L68.6457 795.988C69.0073 795.826 69.3335 795.595 69.6057 795.307C69.8779 795.019 70.0907 794.681 70.232 794.311C70.3733 793.941 70.4403 793.546 70.4292 793.15C70.418 792.754 70.329 792.365 70.1671 792.003C70.0156 791.665 69.9108 791.431 69.9044 791.416C69.4996 790.511 69.3376 789.515 69.4342 788.528C69.5308 787.541 69.8827 786.596 70.4554 785.786C71.028 784.976 71.8016 784.329 72.7001 783.909C73.5986 783.488 74.591 783.309 75.5797 783.389C76.5684 783.468 77.5194 783.804 78.3391 784.363C79.1588 784.921 79.8189 785.684 80.2546 786.575C80.6902 787.466 80.8864 788.455 80.8239 789.445C80.7613 790.435 80.4421 791.392 79.8977 792.221L79.8991 792.221C79.8991 792.221 77.1099 796.491 77.4608 800.482L77.4619 800.482C77.5684 801.284 77.7904 802.066 78.1209 802.805C78.2565 803.108 79.4614 805.758 80.4593 807.899C80.8038 808.638 81.4249 809.211 82.1886 809.496C82.9523 809.781 83.7974 809.754 84.5416 809.422L84.5416 809.422C84.9155 809.255 85.2527 809.015 85.5338 808.718C85.8149 808.42 86.0344 808.069 86.1795 807.686C86.3246 807.303 86.3926 806.895 86.3794 806.486C86.3663 806.076 86.2724 805.674 86.103 805.301C85.2087 803.331 84.1749 801.034 84.1003 800.867C83.1519 798.744 84.2551 795.714 85.3213 793.583C86.549 791.129 86.9761 788.341 86.4453 785.649C86.3446 785.091 86.1829 784.545 85.9632 784.023C85.3254 782.595 84.4114 781.308 83.2739 780.235C82.1364 779.162 80.7979 778.325 79.3354 777.771C77.8729 777.218 76.3153 776.96 74.7525 777.011C73.1897 777.062 71.6525 777.422 70.2294 778.07V778.07Z" fill="#2669F5"/>
<path d="M68.8411 794.339C68.1115 794.665 67.2824 794.688 66.5361 794.403C65.7898 794.117 65.1874 793.547 64.8615 792.817C64.6392 792.32 64.4696 791.939 64.4462 791.885C63.7081 790.17 63.3894 788.304 63.5167 786.442C63.0063 788.827 63.2499 791.312 64.2137 793.553C64.2371 793.608 64.4066 793.988 64.629 794.486C64.9549 795.215 65.5573 795.786 66.3036 796.071C67.0499 796.356 67.879 796.334 68.6086 796.008V796.008C69.208 795.74 69.7035 795.284 70.0199 794.708C70.3363 794.133 70.4562 793.47 70.3615 792.82C70.0596 793.497 69.5181 794.038 68.8411 794.339V794.339Z" fill="#F3A508"/>
<path d="M73.0052 783.783C73.8666 783.447 74.7968 783.324 75.7159 783.426C76.635 783.529 77.5156 783.852 78.282 784.37C79.0484 784.887 79.6778 785.583 80.1161 786.398C80.5544 787.212 80.7886 788.12 80.7984 789.045C81.0295 788.257 81.088 787.428 80.9698 786.615C80.8516 785.802 80.5595 785.024 80.1134 784.334C79.6673 783.645 79.0777 783.059 78.3848 782.618C77.6919 782.177 76.912 781.89 76.0983 781.777C75.2846 781.665 74.4561 781.729 73.6695 781.966C72.8828 782.202 72.1565 782.606 71.5399 783.149C70.9233 783.691 70.431 784.361 70.0966 785.111C69.7621 785.861 69.5934 786.675 69.6019 787.496C69.847 786.658 70.2813 785.888 70.8713 785.244C71.4614 784.6 72.1914 784.1 73.0052 783.783V783.783Z" fill="#F3A508"/>
<path d="M84.737 807.774C83.9928 808.106 83.1477 808.133 82.384 807.848C81.6203 807.563 80.9992 806.99 80.6548 806.251C79.6568 804.11 78.452 801.46 78.3163 801.157C77.9858 800.418 77.7639 799.636 77.6573 798.834L77.6562 798.834C77.6214 798.423 77.6165 798.01 77.6416 797.598C77.4251 798.55 77.3517 799.529 77.4237 800.502L77.4248 800.502C77.5313 801.304 77.7533 802.087 78.0838 802.825C78.2194 803.129 79.4243 805.778 80.4222 807.919C80.7667 808.658 81.3878 809.232 82.1515 809.517C82.9152 809.802 83.7603 809.775 84.5044 809.442V809.442C85.118 809.168 85.6262 808.702 85.9526 808.115C86.2791 807.527 86.4063 806.85 86.3152 806.184C86.0061 806.892 85.4431 807.46 84.737 807.774V807.774Z" fill="#F3A508"/>
<path d="M88.5504 820.224C87.9141 820.23 87.2851 820.088 86.7131 819.809C86.141 819.53 85.6416 819.122 85.2542 818.617C84.8668 818.113 84.6021 817.525 84.4808 816.9C84.3596 816.275 84.3852 815.631 84.5556 815.018C84.2662 815.523 84.0877 816.084 84.0317 816.664C83.9758 817.244 84.0438 817.829 84.2312 818.38C84.4187 818.931 84.7212 819.437 85.1188 819.862C85.5164 820.288 86 820.624 86.5374 820.848C87.0749 821.073 87.6539 821.18 88.236 821.164C88.8181 821.147 89.3901 821.007 89.914 820.752C90.4378 820.498 90.9015 820.135 91.2744 819.688C91.6472 819.24 91.9206 818.719 92.0764 818.157C91.7205 818.78 91.2076 819.298 90.589 819.661C89.9703 820.023 89.2675 820.217 88.5504 820.224V820.224Z" fill="#F3A508"/>
<path d="M80.2487 102.963C82.5169 102.963 84.3557 101.124 84.3557 98.8555C84.3557 96.5873 82.5169 94.7485 80.2487 94.7485C77.9805 94.7485 76.1417 96.5873 76.1417 98.8555C76.1417 101.124 77.9805 102.963 80.2487 102.963Z" fill="#2669F5"/>
<path d="M79.8088 56.0003C73.3901 56.0456 68.1345 61.2617 68.0434 67.6799C68.0425 67.7392 68.0421 68.1558 68.0422 68.7008C68.0422 69.4998 68.3596 70.2661 68.9246 70.8311C69.4896 71.3961 70.2559 71.7136 71.0549 71.7137H71.0549C71.451 71.7136 71.8432 71.6355 72.2091 71.4838C72.575 71.3321 72.9074 71.1097 73.1873 70.8295C73.4672 70.5493 73.6892 70.2166 73.8405 69.8506C73.9918 69.4845 74.0695 69.0923 74.0692 68.6962C74.0689 68.3255 74.0687 68.0689 74.0687 68.0531C74.0685 67.0612 74.3265 66.0863 74.8174 65.2243C75.3082 64.3624 76.015 63.643 76.8682 63.1371C77.7213 62.6311 78.6915 62.356 79.6833 62.3387C80.6751 62.3214 81.6543 62.5626 82.5246 63.0386C83.3948 63.5145 84.1262 64.2088 84.6468 65.0532C85.1674 65.8975 85.4592 66.8628 85.4935 67.8542C85.5278 68.8455 85.3035 69.8287 84.8426 70.707C84.3817 71.5854 83.7001 72.3286 82.8648 72.8636L82.8659 72.8649C82.8659 72.8649 78.5778 75.6254 77.2705 79.4124L77.2716 79.4127C77.0417 80.1885 76.9252 80.9935 76.9257 81.8026C76.9257 82.1352 76.9453 85.0455 76.9831 87.4076C76.9963 88.2226 77.3294 88.9997 77.9105 89.5713C78.4916 90.1429 79.2741 90.4632 80.0893 90.463H80.0893C80.4988 90.463 80.9044 90.382 81.2825 90.2246C81.6607 90.0673 82.004 89.8368 82.2927 89.5463C82.5814 89.2557 82.8098 88.911 82.9648 88.5319C83.1198 88.1528 83.1983 87.7467 83.1957 87.3372C83.1826 85.1739 83.1755 82.6551 83.1755 82.4722C83.1755 80.1469 85.4187 77.83 87.2614 76.3191C89.3833 74.5793 90.9102 72.2083 91.5235 69.5337C91.6592 68.9831 91.734 68.4192 91.7466 67.8522C91.7466 66.2886 91.4372 64.7404 90.8362 63.2968C90.2352 61.8533 89.3545 60.5429 88.2448 59.4412C87.1352 58.3395 85.8185 57.4683 84.3706 56.8778C82.9228 56.2872 81.3724 55.989 79.8088 56.0003V56.0003Z" fill="#2669F5"/>
<path d="M71.9056 70.2886C71.1066 70.2885 70.3403 69.971 69.7753 69.406C69.2103 68.841 68.8929 68.0747 68.8928 67.2757C68.8928 66.7307 68.8932 66.3141 68.894 66.2548C68.9194 64.3882 69.3895 62.5546 70.2653 60.906C68.8264 62.8758 68.0352 65.2442 68.0012 67.6833C68.0004 67.7426 68 68.1592 68 68.7042C68.0001 69.5032 68.3175 70.2695 68.8825 70.8345C69.4475 71.3996 70.2137 71.717 71.0128 71.7171V71.7171C71.6693 71.7169 72.3079 71.5023 72.8314 71.106C73.355 70.7098 73.7348 70.1535 73.9134 69.5216C73.3617 70.0163 72.6466 70.2895 71.9056 70.2886V70.2886Z" fill="#F3A508"/>
<path d="M80.013 62.3489C80.9367 62.393 81.8359 62.6607 82.6334 63.1289C83.4309 63.5971 84.1029 64.2518 84.5916 65.0369C85.0803 65.822 85.3712 66.714 85.4393 67.6363C85.5073 68.5586 85.3505 69.4836 84.9823 70.3319C85.5149 69.7065 85.9063 68.9735 86.13 68.1831C86.3536 67.3926 86.4041 66.5632 86.2782 65.7515C86.1522 64.9397 85.8527 64.1647 85.4 63.4792C84.9474 62.7937 84.3522 62.2138 83.6552 61.7792C82.9581 61.3445 82.1755 61.0653 81.3608 60.9605C80.546 60.8557 79.7182 60.9278 78.9339 61.172C78.1495 61.4161 77.427 61.8265 76.8156 62.3751C76.2043 62.9238 75.7184 63.5978 75.3911 64.3513C75.9567 63.6859 76.6676 63.1593 77.469 62.8122C78.2703 62.465 79.1407 62.3065 80.013 62.3489V62.3489Z" fill="#F3A508"/>
<path d="M80.9399 89.0378C80.1248 89.038 79.3422 88.7177 78.7612 88.1461C78.1801 87.5745 77.847 86.7974 77.8337 85.9823C77.7959 83.6203 77.7764 80.71 77.7764 80.3774C77.7758 79.5683 77.8923 78.7633 78.1222 77.9875L78.1211 77.9872C78.2569 77.5978 78.4208 77.2188 78.6116 76.8533C78.0258 77.634 77.5596 78.4976 77.2283 79.4158L77.2294 79.416C76.9995 80.1918 76.883 80.9968 76.8835 81.8059C76.8835 82.1385 76.9031 85.0488 76.9409 87.4109C76.9541 88.2259 77.2872 89.003 77.8683 89.5746C78.4494 90.1462 79.2319 90.4665 80.0471 90.4663V90.4663C80.7191 90.4662 81.3731 90.2482 81.9107 89.845C82.4484 89.4417 82.8409 88.8751 83.0293 88.2299C82.4581 88.7507 81.7128 89.0389 80.9399 89.0378V89.0378Z" fill="#F3A508"/>
<path d="M79.3439 101.961C78.7604 101.707 78.244 101.321 77.8354 100.833C77.4269 100.345 77.1372 99.7687 76.9894 99.1497C76.8416 98.5308 76.8397 97.8859 76.9838 97.2661C77.1279 96.6463 77.4141 96.0684 77.8198 95.5781C77.3494 95.9215 76.9575 96.3611 76.67 96.8675C76.3825 97.374 76.206 97.9358 76.1522 98.5157C76.0985 99.0956 76.1687 99.6803 76.3581 100.231C76.5476 100.782 76.852 101.286 77.2512 101.71C77.6504 102.134 78.1352 102.468 78.6735 102.691C79.2118 102.913 79.7912 103.018 80.3732 103C80.9553 102.981 81.5268 102.839 82.0497 102.582C82.5725 102.326 83.0349 101.961 83.4061 101.512C82.8272 101.935 82.1475 102.199 81.4348 102.278C80.7221 102.357 80.0011 102.247 79.3439 101.961V101.961Z" fill="#F3A508"/>
<path d="M240.17 135.987C240.942 135.987 241.568 135.361 241.568 134.589C241.568 133.816 240.942 133.19 240.17 133.19C239.397 133.19 238.772 133.816 238.772 134.589C238.772 135.361 239.397 135.987 240.17 135.987Z" fill="#2669F5"/>
<path d="M240.02 120C237.835 120.016 236.046 121.791 236.015 123.976C236.014 123.996 236.014 124.138 236.014 124.324C236.014 124.596 236.122 124.856 236.315 125.049C236.507 125.241 236.768 125.349 237.04 125.349H237.04C237.175 125.349 237.308 125.323 237.433 125.271C237.557 125.219 237.671 125.144 237.766 125.048C237.861 124.953 237.937 124.84 237.988 124.715C238.04 124.59 238.066 124.457 238.066 124.322C238.066 124.196 238.066 124.108 238.066 124.103C238.066 123.765 238.154 123.434 238.321 123.14C238.488 122.847 238.728 122.602 239.019 122.43C239.309 122.257 239.64 122.164 239.977 122.158C240.315 122.152 240.648 122.234 240.944 122.396C241.241 122.558 241.49 122.794 241.667 123.082C241.844 123.369 241.943 123.698 241.955 124.035C241.967 124.373 241.89 124.707 241.733 125.006C241.577 125.305 241.345 125.558 241.06 125.741L241.061 125.741C241.061 125.741 239.601 126.681 239.156 127.97L239.156 127.97C239.078 128.234 239.038 128.508 239.038 128.784C239.038 128.897 239.045 129.887 239.058 130.692C239.062 130.969 239.176 131.234 239.374 131.428C239.571 131.623 239.838 131.732 240.115 131.732H240.115C240.255 131.732 240.393 131.704 240.522 131.651C240.65 131.597 240.767 131.519 240.865 131.42C240.964 131.321 241.041 131.203 241.094 131.074C241.147 130.945 241.174 130.807 241.173 130.668C241.168 129.931 241.166 129.074 241.166 129.012C241.166 128.22 241.93 127.431 242.557 126.917C243.279 126.325 243.799 125.518 244.008 124.607C244.054 124.42 244.079 124.228 244.084 124.035C244.084 123.502 243.978 122.975 243.774 122.484C243.569 121.993 243.269 121.546 242.892 121.171C242.514 120.796 242.066 120.5 241.573 120.299C241.08 120.098 240.552 119.996 240.02 120V120Z" fill="#2669F5"/>
<path d="M237.33 124.864C237.058 124.864 236.797 124.756 236.604 124.564C236.412 124.371 236.304 124.11 236.304 123.838C236.304 123.653 236.304 123.511 236.304 123.491C236.313 122.856 236.473 122.231 236.771 121.67C236.281 122.341 236.012 123.147 236 123.977C236 123.997 236 124.139 236 124.325C236 124.597 236.108 124.858 236.3 125.05C236.493 125.242 236.754 125.35 237.026 125.35V125.35C237.249 125.35 237.466 125.277 237.645 125.142C237.823 125.008 237.952 124.818 238.013 124.603C237.825 124.771 237.582 124.864 237.33 124.864V124.864Z" fill="#F3A508"/>
<path d="M240.089 122.161C240.404 122.176 240.71 122.268 240.981 122.427C241.253 122.586 241.482 122.809 241.648 123.076C241.814 123.344 241.913 123.647 241.937 123.961C241.96 124.275 241.906 124.59 241.781 124.879C241.962 124.666 242.096 124.416 242.172 124.147C242.248 123.878 242.265 123.596 242.222 123.32C242.179 123.043 242.077 122.779 241.923 122.546C241.769 122.313 241.567 122.115 241.329 121.967C241.092 121.819 240.826 121.724 240.548 121.689C240.271 121.653 239.989 121.678 239.722 121.761C239.455 121.844 239.209 121.984 239.001 122.17C238.793 122.357 238.627 122.587 238.516 122.843C238.709 122.617 238.951 122.437 239.223 122.319C239.496 122.201 239.792 122.147 240.089 122.161V122.161Z" fill="#F3A508"/>
<path d="M240.405 131.246C240.127 131.246 239.861 131.137 239.663 130.943C239.465 130.748 239.352 130.484 239.348 130.206C239.335 129.402 239.328 128.412 239.328 128.298C239.328 128.023 239.368 127.749 239.446 127.485L239.445 127.485C239.492 127.352 239.547 127.223 239.612 127.099C239.413 127.364 239.254 127.658 239.141 127.971L239.142 127.971C239.064 128.235 239.024 128.509 239.024 128.785C239.024 128.898 239.031 129.888 239.044 130.693C239.048 130.97 239.162 131.235 239.359 131.429C239.557 131.624 239.824 131.733 240.101 131.733V131.733C240.33 131.733 240.552 131.658 240.735 131.521C240.918 131.384 241.052 131.191 241.116 130.971C240.922 131.149 240.668 131.247 240.405 131.246V131.246Z" fill="#F3A508"/>
<path d="M239.862 135.646C239.663 135.559 239.487 135.428 239.348 135.262C239.209 135.096 239.11 134.899 239.06 134.689C239.01 134.478 239.009 134.259 239.058 134.048C239.107 133.837 239.205 133.64 239.343 133.473C239.183 133.59 239.049 133.739 238.951 133.912C238.854 134.084 238.793 134.275 238.775 134.473C238.757 134.67 238.781 134.869 238.845 135.057C238.91 135.244 239.013 135.416 239.149 135.56C239.285 135.705 239.45 135.818 239.633 135.894C239.817 135.97 240.014 136.006 240.212 135.999C240.41 135.993 240.605 135.944 240.783 135.857C240.961 135.77 241.118 135.646 241.244 135.493C241.047 135.637 240.816 135.727 240.573 135.754C240.331 135.78 240.085 135.743 239.862 135.646V135.646Z" fill="#F3A508"/>
<path d="M480.17 15.9866C480.942 15.9866 481.568 15.3606 481.568 14.5885C481.568 13.8164 480.942 13.1904 480.17 13.1904C479.398 13.1904 478.772 13.8164 478.772 14.5885C478.772 15.3606 479.398 15.9866 480.17 15.9866Z" fill="#2669F5"/>
<path d="M480.02 0.000105286C477.835 0.0155394 476.046 1.79116 476.015 3.976C476.015 3.99618 476.014 4.13801 476.014 4.32352C476.014 4.59553 476.122 4.85638 476.315 5.04872C476.507 5.24106 476.768 5.34913 477.04 5.34917H477.04C477.175 5.34914 477.308 5.32254 477.433 5.27089C477.557 5.21925 477.671 5.14356 477.766 5.04817C477.861 4.95277 477.937 4.83954 477.988 4.71493C478.04 4.59032 478.066 4.45679 478.066 4.32195C478.066 4.19576 478.066 4.10842 478.066 4.10305C478.066 3.76539 478.154 3.43352 478.321 3.1401C478.488 2.84667 478.728 2.6018 479.019 2.42956C479.309 2.25733 479.64 2.16366 479.977 2.15778C480.315 2.1519 480.648 2.23401 480.944 2.39603C481.241 2.55805 481.49 2.79439 481.667 3.08182C481.844 3.36925 481.943 3.69786 481.955 4.03532C481.967 4.37278 481.89 4.70748 481.734 5.00648C481.577 5.30547 481.345 5.55848 481.06 5.74061L481.061 5.74104C481.061 5.74104 479.601 6.68078 479.156 7.96992L479.156 7.97001C479.078 8.23411 479.038 8.50813 479.038 8.78357C479.038 8.8968 479.045 9.88749 479.058 10.6916C479.063 10.969 479.176 11.2336 479.374 11.4282C479.572 11.6227 479.838 11.7318 480.115 11.7317H480.115C480.255 11.7317 480.393 11.7041 480.522 11.6506C480.65 11.597 480.767 11.5185 480.865 11.4196C480.964 11.3207 481.042 11.2034 481.094 11.0743C481.147 10.9453 481.174 10.807 481.173 10.6676C481.168 9.93122 481.166 9.07376 481.166 9.01152C481.166 8.21994 481.93 7.43124 482.557 6.91691C483.279 6.32465 483.799 5.51753 484.008 4.60707C484.054 4.41963 484.079 4.22768 484.084 4.03467C484.084 3.50238 483.978 2.97534 483.774 2.48394C483.569 1.99253 483.269 1.54647 482.892 1.17144C482.514 0.796415 482.066 0.499843 481.573 0.29881C481.08 0.0977781 480.552 -0.00373997 480.02 0.000105286V0.000105286Z" fill="#2669F5"/>
<path d="M477.33 4.86413C477.058 4.8641 476.797 4.75603 476.604 4.56369C476.412 4.37135 476.304 4.11049 476.304 3.83849C476.304 3.65298 476.304 3.51114 476.304 3.49097C476.313 2.85556 476.473 2.23136 476.771 1.67017C476.281 2.34072 476.012 3.14693 476 3.97726C476 3.99743 476 4.13927 476 4.32478C476 4.59678 476.108 4.85764 476.3 5.04998C476.493 5.24232 476.754 5.35039 477.026 5.35042V5.35042C477.249 5.35034 477.466 5.2773 477.645 5.1424C477.823 5.00751 477.952 4.81813 478.013 4.60304C477.825 4.77144 477.582 4.86444 477.33 4.86413V4.86413Z" fill="#F3A508"/>
<path d="M480.089 2.16138C480.404 2.17639 480.71 2.2675 480.981 2.42689C481.253 2.58627 481.482 2.80916 481.648 3.07642C481.814 3.34367 481.913 3.64732 481.937 3.96127C481.96 4.27523 481.906 4.59012 481.781 4.8789C481.962 4.66599 482.096 4.41649 482.172 4.14741C482.248 3.87833 482.265 3.596 482.222 3.31966C482.179 3.04333 482.077 2.77949 481.923 2.54614C481.769 2.31278 481.566 2.11539 481.329 1.96743C481.092 1.81947 480.826 1.72441 480.548 1.68874C480.271 1.65307 479.989 1.67762 479.722 1.76073C479.455 1.84383 479.209 1.98353 479.001 2.17031C478.793 2.35708 478.627 2.58653 478.516 2.84302C478.709 2.61651 478.951 2.43726 479.223 2.31907C479.496 2.20089 479.792 2.14693 480.089 2.16138V2.16138Z" fill="#F3A508"/>
<path d="M480.405 11.2464C480.127 11.2465 479.861 11.1375 479.663 10.9429C479.465 10.7483 479.352 10.4837 479.348 10.2063C479.335 9.40221 479.328 8.41152 479.328 8.2983C479.328 8.02286 479.367 7.74883 479.446 7.48474L479.445 7.48465C479.492 7.35209 479.547 7.22308 479.612 7.09863C479.413 7.3644 479.254 7.65839 479.141 7.97094L479.142 7.97103C479.064 8.23512 479.024 8.50914 479.024 8.78459C479.024 8.89781 479.031 9.8885 479.044 10.6926C479.048 10.97 479.161 11.2346 479.359 11.4292C479.557 11.6237 479.823 11.7328 480.101 11.7327V11.7327C480.33 11.7327 480.552 11.6584 480.735 11.5212C480.918 11.3839 481.052 11.191 481.116 10.9714C480.922 11.1487 480.668 11.2468 480.405 11.2464V11.2464Z" fill="#F3A508"/>
<path d="M479.862 15.6457C479.663 15.5592 479.487 15.4277 479.348 15.2616C479.209 15.0955 479.11 14.8994 479.06 14.6887C479.01 14.478 479.009 14.2585 479.058 14.0475C479.107 13.8365 479.205 13.6398 479.343 13.4729C479.183 13.5898 479.049 13.7394 478.951 13.9118C478.854 14.0842 478.793 14.2755 478.775 14.4729C478.757 14.6703 478.781 14.8693 478.845 15.0568C478.91 15.2443 479.013 15.4159 479.149 15.5602C479.285 15.7046 479.45 15.8184 479.633 15.8941C479.817 15.9697 480.014 16.0056 480.212 15.9992C480.41 15.9929 480.605 15.9444 480.783 15.8572C480.961 15.7699 481.118 15.6457 481.244 15.4929C481.047 15.637 480.816 15.7269 480.573 15.7537C480.331 15.7805 480.085 15.7432 479.862 15.6457V15.6457Z" fill="#F3A508"/>
<path d="M16.0286 471.872C16.0286 471.1 15.4026 470.474 14.6305 470.474C13.8584 470.474 13.2324 471.1 13.2324 471.872C13.2324 472.644 13.8584 473.27 14.6305 473.27C15.4026 473.27 16.0286 472.644 16.0286 471.872Z" fill="#2669F5"/>
<path d="M0.0419754 472.022C0.0574096 474.207 1.83303 475.996 4.01787 476.027C4.03805 476.027 4.17988 476.027 4.36539 476.027C4.6374 476.027 4.89825 475.919 5.09059 475.727C5.28293 475.535 5.391 475.274 5.39104 475.002V475.002C5.39101 474.867 5.36441 474.733 5.31276 474.609C5.26112 474.484 5.18543 474.371 5.09004 474.276C4.99464 474.181 4.88141 474.105 4.7568 474.054C4.63219 474.002 4.49866 473.976 4.36382 473.976C4.23763 473.976 4.15029 473.976 4.14492 473.976C3.80726 473.976 3.47539 473.888 3.18197 473.721C2.88854 473.554 2.64367 473.313 2.47143 473.023C2.2992 472.732 2.20553 472.402 2.19965 472.065C2.19377 471.727 2.27588 471.394 2.4379 471.097C2.59992 470.801 2.83626 470.552 3.12369 470.375C3.41112 470.198 3.73973 470.098 4.07719 470.087C4.41465 470.075 4.74935 470.151 5.04835 470.308C5.34734 470.465 5.60035 470.697 5.78248 470.982L5.78291 470.981C5.78291 470.981 6.72265 472.441 8.01179 472.886L8.01188 472.886C8.27598 472.964 8.55 473.003 8.82544 473.003C8.93867 473.003 9.92936 472.997 10.7334 472.984C11.0109 472.979 11.2754 472.866 11.47 472.668C11.6646 472.47 11.7736 472.204 11.7736 471.926V471.926C11.7736 471.787 11.746 471.649 11.6924 471.52C11.6389 471.391 11.5604 471.275 11.4615 471.176C11.3626 471.078 11.2452 471 11.1162 470.947C10.9871 470.895 10.8489 470.868 10.7095 470.869C9.97309 470.873 9.11563 470.876 9.05339 470.876C8.26181 470.876 7.47311 470.112 6.95878 469.485C6.36652 468.763 5.5594 468.243 4.64894 468.034C4.4615 467.988 4.26955 467.962 4.07654 467.958C3.54425 467.958 3.01721 468.063 2.52581 468.268C2.0344 468.473 1.58834 468.772 1.21331 469.15C0.838285 469.528 0.541713 469.976 0.34068 470.469C0.139648 470.962 0.0381301 471.49 0.0419754 472.022V472.022Z" fill="#2669F5"/>
<path d="M4.90588 474.712C4.90585 474.984 4.79778 475.245 4.60544 475.437C4.4131 475.63 4.15224 475.738 3.88024 475.738C3.69473 475.738 3.55289 475.738 3.53272 475.737C2.89731 475.729 2.27311 475.569 1.71191 475.271C2.38247 475.76 3.18868 476.03 4.01901 476.041C4.03918 476.042 4.18102 476.042 4.36653 476.042C4.63853 476.042 4.89939 475.934 5.09173 475.741C5.28407 475.549 5.39214 475.288 5.39217 475.016V475.016C5.39208 474.793 5.31905 474.575 5.18415 474.397C5.04926 474.219 4.85988 474.09 4.64479 474.029C4.81319 474.217 4.90619 474.46 4.90588 474.712V474.712Z" fill="#F3A508"/>
<path d="M2.20312 471.952C2.21814 471.638 2.30925 471.332 2.46863 471.06C2.62801 470.789 2.8509 470.56 3.11816 470.394C3.38542 470.227 3.68907 470.128 4.00302 470.105C4.31698 470.082 4.63187 470.135 4.92065 470.261C4.70774 470.079 4.45824 469.946 4.18916 469.87C3.92008 469.794 3.63775 469.777 3.36141 469.82C3.08508 469.862 2.82124 469.964 2.58788 470.118C2.35453 470.273 2.15714 470.475 2.00918 470.712C1.86122 470.95 1.76616 471.216 1.73049 471.493C1.69482 471.771 1.71937 472.053 1.80248 472.32C1.88558 472.587 2.02528 472.833 2.21205 473.041C2.39883 473.249 2.62828 473.414 2.88477 473.526C2.65826 473.333 2.479 473.091 2.36082 472.818C2.24264 472.546 2.18868 472.249 2.20312 471.952V471.952Z" fill="#F3A508"/>
<path d="M11.2884 471.637C11.2885 471.914 11.1794 472.181 10.9849 472.378C10.7903 472.576 10.5257 472.69 10.2483 472.694C9.4442 472.707 8.45352 472.714 8.34029 472.714C8.06485 472.714 7.79083 472.674 7.52673 472.596L7.52664 472.596C7.39408 472.55 7.26507 472.494 7.14062 472.429C7.40639 472.629 7.70038 472.787 8.01293 472.9L8.01302 472.9C8.27711 472.978 8.55114 473.018 8.82658 473.018C8.9398 473.018 9.93049 473.011 10.7346 472.998C11.012 472.994 11.2766 472.88 11.4712 472.682C11.6657 472.485 11.7748 472.218 11.7747 471.941V471.941C11.7747 471.712 11.7004 471.489 11.5632 471.306C11.4259 471.123 11.233 470.99 11.0134 470.925C11.1907 471.12 11.2888 471.374 11.2884 471.637V471.637Z" fill="#F3A508"/>
<path d="M15.6876 472.18C15.6011 472.379 15.4696 472.554 15.3035 472.694C15.1375 472.833 14.9413 472.931 14.7306 472.981C14.5199 473.032 14.3004 473.032 14.0894 472.983C13.8784 472.934 13.6817 472.837 13.5148 472.699C13.6317 472.859 13.7814 472.992 13.9538 473.09C14.1262 473.188 14.3174 473.248 14.5148 473.266C14.7122 473.285 14.9113 473.261 15.0987 473.196C15.2862 473.132 15.4578 473.028 15.6022 472.892C15.7465 472.756 15.8603 472.591 15.936 472.408C16.0117 472.225 16.0475 472.028 16.0412 471.83C16.0348 471.631 15.9864 471.437 15.8991 471.259C15.8118 471.081 15.6876 470.924 15.5349 470.797C15.6789 470.994 15.7688 471.226 15.7956 471.468C15.8224 471.711 15.7852 471.956 15.6876 472.18V472.18Z" fill="#F3A508"/>
<path d="M331.907 868.376C331.907 870.644 333.471 872.483 335.402 872.483C337.332 872.483 338.897 870.644 338.897 868.376C338.897 866.107 337.332 864.269 335.402 864.269C333.471 864.269 331.907 866.107 331.907 868.376Z" fill="#2669F5"/>
<path d="M371.873 867.936C371.834 861.517 367.395 856.261 361.933 856.17C361.883 856.169 361.528 856.169 361.064 856.169C360.384 856.169 359.732 856.486 359.251 857.051C358.771 857.616 358.5 858.383 358.5 859.182V859.182C358.5 859.578 358.567 859.97 358.696 860.336C358.825 860.702 359.014 861.034 359.253 861.314C359.491 861.594 359.774 861.816 360.086 861.967C360.397 862.119 360.731 862.196 361.068 862.196C361.384 862.196 361.602 862.195 361.616 862.195C362.46 862.195 363.289 862.453 364.023 862.944C364.757 863.435 365.369 864.142 365.799 864.995C366.23 865.848 366.464 866.818 366.479 867.81C366.494 868.802 366.288 869.781 365.883 870.651C365.478 871.522 364.887 872.253 364.169 872.774C363.45 873.294 362.629 873.586 361.785 873.62C360.941 873.655 360.105 873.43 359.357 872.969C358.61 872.508 357.977 871.827 357.522 870.992L357.521 870.993C357.521 870.993 355.171 866.705 351.948 865.397L351.948 865.398C351.288 865.168 350.603 865.052 349.914 865.053C349.631 865.053 347.155 865.072 345.144 865.11C344.451 865.123 343.789 865.456 343.303 866.037C342.816 866.618 342.544 867.401 342.544 868.216V868.216C342.544 868.626 342.613 869.031 342.747 869.409C342.881 869.787 343.077 870.131 343.324 870.419C343.571 870.708 343.865 870.937 344.188 871.092C344.51 871.247 344.856 871.325 345.204 871.323C347.045 871.309 349.189 871.302 349.344 871.302C351.323 871.302 353.295 873.546 354.581 875.388C356.062 877.51 358.079 879.037 360.356 879.65C360.824 879.786 361.304 879.861 361.787 879.873C363.117 879.873 364.435 879.564 365.663 878.963C366.892 878.362 368.007 877.481 368.945 876.372C369.882 875.262 370.624 873.945 371.126 872.497C371.629 871.05 371.883 869.499 371.873 867.936V867.936Z" fill="#2669F5"/>
<path d="M359.713 860.033C359.713 859.234 359.983 858.467 360.464 857.902C360.945 857.337 361.597 857.02 362.277 857.02C362.741 857.02 363.096 857.02 363.146 857.021C364.735 857.046 366.295 857.516 367.698 858.392C366.022 856.953 364.006 856.162 361.93 856.128C361.88 856.127 361.525 856.127 361.062 856.127C360.382 856.127 359.729 856.444 359.249 857.009C358.768 857.574 358.498 858.341 358.497 859.14V859.14C358.498 859.796 358.68 860.435 359.018 860.958C359.355 861.482 359.828 861.862 360.366 862.04C359.945 861.489 359.712 860.774 359.713 860.033V860.033Z" fill="#F3A508"/>
<path d="M366.47 868.14C366.433 869.064 366.205 869.963 365.806 870.76C365.408 871.558 364.851 872.23 364.182 872.719C363.514 873.207 362.755 873.498 361.97 873.566C361.185 873.634 360.398 873.477 359.676 873.109C360.209 873.642 360.832 874.033 361.505 874.257C362.178 874.481 362.884 874.531 363.574 874.405C364.265 874.279 364.925 873.98 365.508 873.527C366.092 873.074 366.585 872.479 366.955 871.782C367.325 871.085 367.563 870.302 367.652 869.488C367.741 868.673 367.679 867.845 367.472 867.061C367.264 866.276 366.915 865.554 366.448 864.943C365.981 864.331 365.407 863.845 364.766 863.518C365.332 864.084 365.78 864.795 366.076 865.596C366.371 866.397 366.506 867.268 366.47 868.14V868.14Z" fill="#F3A508"/>
<path d="M343.757 869.067C343.757 868.252 344.029 867.469 344.516 866.888C345.002 866.307 345.664 865.974 346.357 865.961C348.368 865.923 350.844 865.904 351.127 865.904C351.816 865.903 352.501 866.02 353.161 866.249L353.161 866.248C353.493 866.384 353.815 866.548 354.126 866.739C353.462 866.153 352.727 865.687 351.946 865.355L351.945 865.357C351.285 865.127 350.6 865.01 349.912 865.011C349.629 865.011 347.152 865.03 345.142 865.068C344.448 865.081 343.787 865.414 343.3 865.996C342.814 866.577 342.541 867.359 342.541 868.174V868.174C342.541 868.846 342.727 869.5 343.07 870.038C343.413 870.576 343.895 870.968 344.445 871.156C344.001 870.585 343.756 869.84 343.757 869.067V869.067Z" fill="#F3A508"/>
<path d="M332.759 867.471C332.975 866.887 333.304 866.371 333.719 865.962C334.134 865.554 334.625 865.264 335.151 865.116C335.678 864.969 336.227 864.967 336.754 865.111C337.282 865.255 337.774 865.541 338.191 865.947C337.899 865.476 337.525 865.085 337.094 864.797C336.663 864.51 336.184 864.333 335.691 864.279C335.197 864.225 334.7 864.296 334.231 864.485C333.762 864.675 333.333 864.979 332.973 865.378C332.612 865.777 332.327 866.262 332.138 866.801C331.949 867.339 331.859 867.918 331.875 868.5C331.891 869.082 332.012 869.654 332.23 870.177C332.449 870.7 332.759 871.162 333.141 871.533C332.781 870.954 332.556 870.275 332.489 869.562C332.422 868.849 332.515 868.128 332.759 867.471V867.471Z" fill="#F3A508"/>
<path d="M338.02 122.384C339.624 123.988 342.031 124.182 343.396 122.817C344.761 121.452 344.567 119.045 342.963 117.441C341.359 115.837 338.952 115.644 337.587 117.009C336.223 118.374 336.416 120.78 338.02 122.384Z" fill="#2669F5"/>
<path d="M365.97 93.8124C361.404 89.301 354.548 88.7236 350.622 92.5214C350.585 92.5565 350.334 92.807 350.007 93.1349C349.526 93.6158 349.289 94.3014 349.349 95.0409C349.408 95.7804 349.759 96.5133 350.324 97.0783L350.324 97.0784C350.604 97.3584 350.928 97.5887 351.278 97.7561C351.628 97.9235 351.997 98.0248 352.364 98.0541C352.73 98.0834 353.087 98.0402 353.415 97.9269C353.742 97.8136 354.033 97.6325 354.271 97.3939C354.494 97.1706 354.648 97.0161 354.658 97.0066C355.254 96.4095 356.024 96.0053 356.889 95.8337C357.755 95.6621 358.688 95.7289 359.596 96.0278C360.503 96.3266 361.355 96.847 362.067 97.5379C362.778 98.2288 363.326 99.0664 363.655 99.9681C363.983 100.87 364.083 101.805 363.943 102.681C363.803 103.557 363.428 104.345 362.856 104.965C362.284 105.586 361.533 106.019 360.679 106.222C359.824 106.425 358.895 106.39 357.983 106.121L357.983 106.123C357.983 106.123 353.289 104.752 350.086 106.106L350.087 106.107C349.457 106.412 348.89 106.814 348.404 107.301C348.204 107.501 346.466 109.266 345.072 110.714C344.59 111.214 344.358 111.917 344.425 112.672C344.492 113.427 344.853 114.173 345.429 114.749L345.429 114.749C345.719 115.039 346.054 115.277 346.416 115.45C346.778 115.622 347.16 115.726 347.539 115.756C347.918 115.785 348.287 115.739 348.625 115.621C348.962 115.502 349.262 115.313 349.507 115.065C350.799 113.754 352.31 112.233 352.42 112.123C353.819 110.724 356.8 110.916 359.012 111.309C361.559 111.763 364.066 111.416 366.109 110.24C366.536 110.005 366.929 109.718 367.279 109.386C368.22 108.445 368.933 107.294 369.376 106.001C369.82 104.707 369.986 103.296 369.864 101.848C369.742 100.401 369.336 98.9453 368.667 97.5661C367.999 96.187 367.082 94.9112 365.97 93.8124V93.8124Z" fill="#2669F5"/>
<path d="M351.783 96.8224C351.218 96.2573 350.867 95.5245 350.808 94.7849C350.748 94.0454 350.985 93.3598 351.466 92.879C351.794 92.551 352.045 92.3005 352.081 92.2655C353.222 91.1602 354.658 90.3891 356.269 90.0163C354.066 90.1843 352.082 91.05 350.59 92.4938C350.554 92.5289 350.303 92.7793 349.975 93.1073C349.494 93.5882 349.257 94.2737 349.317 95.0133C349.376 95.7528 349.727 96.4857 350.292 97.0507V97.0507C350.756 97.5149 351.337 97.8373 351.946 97.969C352.554 98.1007 353.158 98.0346 353.664 97.7806C352.976 97.6882 352.306 97.3469 351.783 96.8224V96.8224Z" fill="#F3A508"/>
<path d="M362.294 97.7772C362.92 98.457 363.395 99.2539 363.677 100.1C363.959 100.945 364.04 101.814 363.914 102.632C363.787 103.45 363.456 104.193 362.949 104.796C362.442 105.399 361.774 105.845 361.004 106.095C361.756 106.095 362.474 105.931 363.108 105.613C363.742 105.296 364.277 104.833 364.676 104.255C365.076 103.677 365.33 102.999 365.423 102.267C365.515 101.534 365.443 100.764 365.212 100.01C364.981 99.2554 364.595 98.534 364.082 97.8948C363.569 97.2556 362.94 96.7137 362.239 96.306C361.537 95.8983 360.779 95.6343 360.017 95.5322C359.254 95.43 358.505 95.4921 357.82 95.7141C358.621 95.7136 359.44 95.8994 360.216 96.2571C360.991 96.6149 361.702 97.1349 362.294 97.7772V97.7772Z" fill="#F3A508"/>
<path d="M346.888 114.493C346.312 113.917 345.951 113.171 345.884 112.416C345.817 111.661 346.05 110.958 346.531 110.458C347.925 109.01 349.663 107.245 349.863 107.045C350.35 106.557 350.916 106.155 351.546 105.851L351.545 105.85C351.875 105.712 352.219 105.6 352.574 105.515C351.69 105.57 350.841 105.76 350.054 106.079L350.055 106.079C349.425 106.384 348.859 106.786 348.372 107.273C348.172 107.473 346.434 109.238 345.04 110.687C344.559 111.186 344.326 111.89 344.393 112.644C344.46 113.399 344.821 114.145 345.397 114.722V114.722C345.873 115.197 346.466 115.528 347.089 115.666C347.712 115.803 348.331 115.74 348.852 115.485C348.135 115.394 347.434 115.04 346.888 114.493V114.493Z" fill="#F3A508"/>
<path d="M337.983 121.141C337.723 120.576 337.591 119.978 337.595 119.396C337.6 118.813 337.742 118.262 338.01 117.785C338.278 117.308 338.665 116.919 339.139 116.647C339.614 116.376 340.164 116.231 340.746 116.223C340.207 116.097 339.665 116.084 339.157 116.186C338.649 116.287 338.186 116.5 337.799 116.811C337.412 117.122 337.11 117.524 336.913 117.989C336.715 118.455 336.627 118.973 336.654 119.511C336.682 120.048 336.823 120.592 337.07 121.106C337.317 121.621 337.663 122.094 338.086 122.494C338.509 122.895 338.998 123.213 339.523 123.429C340.047 123.644 340.593 123.751 341.125 123.744C340.462 123.589 339.822 123.267 339.271 122.811C338.719 122.354 338.275 121.779 337.983 121.141V121.141Z" fill="#F3A508"/>
<path d="M630.832 721.106C632.307 720.188 632.759 718.249 631.841 716.774C630.923 715.298 628.983 714.847 627.508 715.764C626.033 716.682 625.581 718.622 626.499 720.097C627.417 721.572 629.357 722.024 630.832 721.106Z" fill="#2669F5"/>
<path d="M611.543 690.743C607.387 693.37 606.08 698.889 608.618 703.1C608.641 703.139 608.81 703.41 609.03 703.764C609.353 704.284 609.87 704.654 610.466 704.792C611.062 704.931 611.689 704.828 612.209 704.504L612.209 704.504C612.466 704.344 612.69 704.135 612.866 703.888C613.043 703.641 613.169 703.362 613.237 703.067C613.306 702.771 613.316 702.465 613.266 702.166C613.216 701.866 613.108 701.58 612.948 701.322C612.798 701.081 612.694 700.915 612.687 700.904C612.286 700.259 612.059 699.521 612.03 698.762C612 698.003 612.169 697.249 612.519 696.575C612.869 695.9 613.388 695.329 614.026 694.916C614.664 694.504 615.399 694.264 616.157 694.222C616.916 694.179 617.672 694.335 618.353 694.673C619.033 695.012 619.613 695.521 620.037 696.152C620.46 696.783 620.712 697.513 620.768 698.271C620.823 699.028 620.681 699.788 620.354 700.474L620.355 700.474C620.355 700.474 618.684 704.004 619.366 706.996L619.367 706.996C619.531 707.593 619.781 708.164 620.109 708.69C620.243 708.906 621.434 710.791 622.414 712.312C622.752 712.836 623.283 713.207 623.893 713.344C624.502 713.48 625.14 713.372 625.67 713.042L625.67 713.042C625.937 712.876 626.168 712.659 626.35 712.404C626.532 712.149 626.662 711.86 626.732 711.554C626.803 711.248 626.812 710.932 626.759 710.623C626.706 710.313 626.593 710.017 626.426 709.752C625.542 708.351 624.518 706.715 624.444 706.597C623.503 705.084 624.025 702.67 624.612 700.942C625.287 698.952 625.321 696.792 624.638 694.804C624.503 694.391 624.324 693.994 624.102 693.621C623.47 692.604 622.642 691.722 621.667 691.027C620.692 690.331 619.589 689.835 618.422 689.568C617.254 689.3 616.046 689.266 614.865 689.468C613.684 689.67 612.556 690.103 611.543 690.743V690.743Z" fill="#2669F5"/>
<path d="M612.185 703.233C611.665 703.557 611.039 703.66 610.443 703.521C609.846 703.383 609.33 703.013 609.007 702.493C608.786 702.139 608.618 701.868 608.594 701.829C607.856 700.604 607.419 699.222 607.322 697.795C607.183 699.659 607.627 701.519 608.592 703.119C608.615 703.158 608.783 703.429 609.004 703.783C609.327 704.303 609.844 704.673 610.44 704.812C611.036 704.95 611.663 704.847 612.182 704.524V704.524C612.609 704.258 612.938 703.86 613.118 703.39C613.298 702.921 613.32 702.405 613.18 701.922C613.022 702.467 612.667 702.934 612.185 703.233V703.233Z" fill="#F3A508"/>
<path d="M614.245 694.79C614.863 694.445 615.557 694.255 616.265 694.237C616.973 694.218 617.675 694.372 618.31 694.685C618.946 694.998 619.496 695.46 619.913 696.033C620.331 696.605 620.603 697.27 620.707 697.97C620.8 697.348 620.758 696.713 620.584 696.109C620.409 695.504 620.106 694.944 619.696 694.467C619.286 693.99 618.777 693.608 618.206 693.345C617.634 693.082 617.012 692.946 616.383 692.945C615.754 692.945 615.132 693.08 614.56 693.341C613.987 693.603 613.478 693.985 613.067 694.461C612.656 694.937 612.352 695.496 612.176 696.1C612.001 696.705 611.957 697.34 612.049 697.962C612.148 697.3 612.397 696.67 612.778 696.12C613.159 695.57 613.66 695.115 614.245 694.79V694.79Z" fill="#F3A508"/>
<path d="M625.647 711.771C625.117 712.101 624.478 712.209 623.869 712.073C623.26 711.936 622.729 711.565 622.39 711.041C621.41 709.52 620.22 707.635 620.085 707.419C619.757 706.893 619.508 706.322 619.343 705.725L619.342 705.725C619.273 705.417 619.226 705.104 619.202 704.789C619.137 705.534 619.184 706.284 619.34 707.015L619.34 707.015C619.505 707.613 619.755 708.183 620.083 708.709C620.217 708.925 621.408 710.81 622.388 712.331C622.726 712.856 623.257 713.226 623.867 713.363C624.476 713.499 625.114 713.391 625.644 713.061V713.061C626.081 712.789 626.418 712.383 626.605 711.903C626.791 711.423 626.817 710.896 626.679 710.4C626.518 710.97 626.15 711.459 625.647 711.771V711.771Z" fill="#F3A508"/>
<path d="M629.838 720.821C629.356 720.892 628.864 720.85 628.401 720.698C627.937 720.546 627.516 720.288 627.169 719.946C626.823 719.603 626.561 719.184 626.404 718.723C626.246 718.262 626.199 717.77 626.264 717.287C626.097 717.701 626.02 718.145 626.038 718.591C626.056 719.036 626.169 719.473 626.368 719.872C626.568 720.271 626.85 720.623 627.196 720.904C627.542 721.186 627.944 721.39 628.376 721.505C628.807 721.619 629.257 721.64 629.697 721.567C630.137 721.494 630.557 721.328 630.928 721.08C631.299 720.832 631.613 720.509 631.849 720.13C632.085 719.752 632.238 719.328 632.298 718.886C632.093 719.395 631.758 719.842 631.326 720.181C630.894 720.521 630.381 720.741 629.838 720.821V720.821Z" fill="#F3A508"/>
<path d="M492.853 792.05C493.345 791.744 493.495 791.097 493.189 790.606C492.883 790.114 492.237 789.963 491.745 790.269C491.253 790.575 491.103 791.222 491.409 791.714C491.715 792.205 492.361 792.356 492.853 792.05Z" fill="#2669F5"/>
<path d="M486.423 781.929C485.038 782.804 484.602 784.644 485.448 786.047C485.456 786.06 485.512 786.151 485.586 786.269C485.694 786.442 485.866 786.565 486.064 786.612C486.263 786.658 486.472 786.623 486.645 786.516L486.645 786.516C486.731 786.462 486.806 786.392 486.864 786.31C486.923 786.228 486.965 786.135 486.988 786.036C487.011 785.938 487.014 785.836 486.998 785.736C486.981 785.636 486.945 785.541 486.892 785.455C486.842 785.375 486.807 785.319 486.805 785.316C486.671 785.101 486.595 784.854 486.586 784.601C486.576 784.348 486.632 784.097 486.749 783.872C486.865 783.648 487.038 783.457 487.251 783.32C487.464 783.182 487.709 783.102 487.961 783.088C488.214 783.074 488.466 783.126 488.693 783.239C488.92 783.351 489.113 783.521 489.255 783.732C489.396 783.942 489.48 784.185 489.498 784.438C489.517 784.69 489.469 784.943 489.36 785.172L489.361 785.172C489.361 785.172 488.804 786.349 489.031 787.346L489.031 787.346C489.086 787.545 489.169 787.735 489.279 787.911C489.323 787.983 489.72 788.611 490.047 789.118C490.16 789.293 490.337 789.417 490.54 789.462C490.743 789.508 490.956 789.471 491.132 789.361L491.132 789.361C491.221 789.306 491.298 789.234 491.359 789.149C491.42 789.064 491.463 788.967 491.486 788.866C491.51 788.764 491.513 788.658 491.495 788.555C491.478 788.452 491.44 788.353 491.384 788.265C491.09 787.798 490.748 787.253 490.724 787.213C490.41 786.709 490.584 785.904 490.78 785.328C491.005 784.665 491.016 783.945 490.788 783.282C490.743 783.145 490.684 783.012 490.61 782.888C490.399 782.549 490.123 782.255 489.798 782.023C489.473 781.791 489.105 781.626 488.716 781.537C488.327 781.448 487.924 781.436 487.531 781.504C487.137 781.571 486.761 781.715 486.423 781.929V781.929Z" fill="#2669F5"/>
<path d="M486.637 786.092C486.464 786.2 486.255 786.234 486.057 786.188C485.858 786.142 485.686 786.019 485.578 785.845C485.504 785.727 485.448 785.637 485.44 785.624C485.194 785.216 485.049 784.755 485.016 784.279C484.97 784.901 485.118 785.521 485.44 786.054C485.447 786.067 485.504 786.157 485.577 786.275C485.685 786.449 485.857 786.572 486.056 786.618C486.254 786.664 486.463 786.63 486.637 786.522V786.522C486.779 786.434 486.888 786.301 486.948 786.144C487.008 785.988 487.016 785.816 486.969 785.655C486.916 785.837 486.798 785.992 486.637 786.092V786.092Z" fill="#F3A508"/>
<path d="M487.324 783.278C487.53 783.163 487.761 783.099 487.997 783.093C488.233 783.087 488.467 783.138 488.679 783.243C488.891 783.347 489.074 783.501 489.213 783.692C489.353 783.883 489.443 784.104 489.478 784.338C489.509 784.13 489.495 783.919 489.437 783.717C489.379 783.516 489.278 783.329 489.141 783.17C489.004 783.011 488.835 782.884 488.644 782.796C488.454 782.708 488.246 782.663 488.037 782.663C487.827 782.663 487.62 782.708 487.429 782.795C487.238 782.882 487.068 783.009 486.931 783.168C486.794 783.327 486.693 783.513 486.634 783.714C486.576 783.916 486.561 784.128 486.592 784.335C486.625 784.114 486.708 783.904 486.835 783.721C486.962 783.538 487.129 783.386 487.324 783.278V783.278Z" fill="#F3A508"/>
<path d="M491.125 788.938C490.948 789.048 490.735 789.084 490.532 789.039C490.329 788.993 490.152 788.869 490.039 788.695C489.712 788.188 489.316 787.559 489.271 787.487C489.162 787.312 489.078 787.122 489.023 786.923L489.023 786.923C489 786.82 488.984 786.716 488.977 786.611C488.955 786.859 488.97 787.109 489.022 787.353L489.023 787.353C489.077 787.552 489.161 787.742 489.27 787.917C489.315 787.989 489.712 788.618 490.038 789.125C490.151 789.3 490.328 789.423 490.531 789.469C490.734 789.514 490.947 789.478 491.124 789.368V789.368C491.269 789.277 491.382 789.142 491.444 788.982C491.506 788.822 491.515 788.646 491.469 788.481C491.415 788.671 491.292 788.834 491.125 788.938V788.938Z" fill="#F3A508"/>
<path d="M492.522 791.955C492.361 791.978 492.197 791.964 492.042 791.914C491.888 791.863 491.748 791.777 491.632 791.663C491.517 791.549 491.429 791.409 491.377 791.255C491.324 791.101 491.309 790.938 491.33 790.777C491.275 790.915 491.249 791.063 491.255 791.211C491.261 791.36 491.299 791.505 491.365 791.638C491.432 791.771 491.526 791.889 491.641 791.982C491.756 792.076 491.89 792.144 492.034 792.183C492.178 792.221 492.328 792.228 492.475 792.203C492.621 792.179 492.761 792.124 492.885 792.041C493.009 791.958 493.113 791.851 493.192 791.724C493.271 791.598 493.322 791.457 493.342 791.31C493.273 791.479 493.162 791.628 493.018 791.741C492.874 791.855 492.703 791.928 492.522 791.955V791.955Z" fill="#F3A508"/>
<path d="M613.382 91.9701C615.119 91.9701 616.527 90.5617 616.527 88.8244C616.527 87.0871 615.119 85.6787 613.382 85.6787C611.644 85.6787 610.236 87.0871 610.236 88.8244C610.236 90.5617 611.644 91.9701 613.382 91.9701Z" fill="#2669F5"/>
<path d="M613.045 56.0002C608.128 56.035 604.103 60.0301 604.033 64.946C604.033 64.9914 604.032 65.3105 604.032 65.7279C604.032 66.3399 604.276 66.9269 604.708 67.3596C605.141 67.7924 605.728 68.0356 606.34 68.0356H606.34C606.643 68.0356 606.944 67.9757 607.224 67.8595C607.504 67.7433 607.759 67.573 607.973 67.3584C608.188 67.1437 608.358 66.889 608.473 66.6086C608.589 66.3282 608.649 66.0278 608.649 65.7244C608.648 65.4405 608.648 65.2439 608.648 65.2319C608.648 64.4721 608.846 63.7254 609.222 63.0652C609.598 62.405 610.139 61.854 610.792 61.4665C611.446 61.079 612.189 60.8682 612.949 60.855C613.708 60.8418 614.458 61.0265 615.125 61.3911C615.791 61.7556 616.352 62.2874 616.75 62.9341C617.149 63.5808 617.373 64.3202 617.399 65.0795C617.425 65.8388 617.253 66.5918 616.9 67.2646C616.547 67.9373 616.025 68.5066 615.385 68.9164L615.386 68.9173C615.386 68.9173 612.102 71.0318 611.101 73.9323L611.101 73.9325C610.925 74.5267 610.836 75.1433 610.837 75.763C610.837 76.0178 610.852 78.2468 610.88 80.056C610.891 80.6803 611.146 81.2755 611.591 81.7133C612.036 82.1512 612.635 82.3965 613.26 82.3963H613.26C613.573 82.3963 613.884 82.3342 614.174 82.2137C614.463 82.0932 614.726 81.9166 614.947 81.6941C615.168 81.4716 615.343 81.2076 615.462 80.9172C615.581 80.6268 615.641 80.3158 615.639 80.0021C615.629 78.3452 615.623 76.4159 615.623 76.2759C615.623 74.4949 617.342 72.7203 618.753 71.5631C620.378 70.2305 621.548 68.4144 622.017 66.3659C622.121 65.9442 622.179 65.5123 622.188 65.078C622.188 63.8803 621.951 62.6945 621.491 61.5889C621.031 60.4832 620.356 59.4796 619.506 58.6357C618.656 57.7919 617.648 57.1246 616.539 56.6723C615.43 56.22 614.242 55.9916 613.045 56.0002V56.0002Z" fill="#2669F5"/>
<path d="M606.991 66.944C606.379 66.9439 605.792 66.7008 605.36 66.268C604.927 65.8352 604.684 65.2483 604.684 64.6363C604.684 64.2189 604.684 63.8998 604.685 63.8544C604.704 62.4247 605.064 61.0203 605.735 59.7576C604.633 61.2663 604.027 63.0803 604.001 64.9485C604 64.9939 604 65.313 604 65.7304C604 66.3425 604.243 66.9294 604.676 67.3621C605.109 67.7949 605.696 68.0381 606.308 68.0381V68.0381C606.81 68.038 607.3 67.8736 607.701 67.5701C608.102 67.2666 608.392 66.8405 608.529 66.3565C608.107 66.7354 607.559 66.9447 606.991 66.944V66.944Z" fill="#F3A508"/>
<path d="M613.201 60.8629C613.909 60.8966 614.597 61.1016 615.208 61.4602C615.819 61.8189 616.334 62.3204 616.708 62.9217C617.082 63.523 617.305 64.2062 617.357 64.9126C617.409 65.619 617.289 66.3275 617.007 66.9773C617.415 66.4982 617.715 65.9369 617.886 65.3314C618.058 64.726 618.096 64.0907 618 63.469C617.903 62.8472 617.674 62.2536 617.327 61.7286C616.981 61.2035 616.525 60.7594 615.991 60.4265C615.457 60.0936 614.858 59.8797 614.233 59.7994C613.609 59.7192 612.975 59.7744 612.375 59.9614C611.774 60.1484 611.221 60.4627 610.752 60.8829C610.284 61.3032 609.912 61.8195 609.661 62.3966C610.094 61.8869 610.639 61.4836 611.253 61.2177C611.866 60.9518 612.533 60.8304 613.201 60.8629V60.8629Z" fill="#F3A508"/>
<path d="M613.911 81.3047C613.287 81.3048 612.687 81.0595 612.242 80.6217C611.797 80.1839 611.542 79.5887 611.532 78.9644C611.503 77.1552 611.488 74.9262 611.488 74.6714C611.488 74.0517 611.577 73.4351 611.753 72.8409L611.752 72.8407C611.856 72.5425 611.982 72.2522 612.128 71.9722C611.679 72.5701 611.322 73.2316 611.068 73.9349L611.069 73.9351C610.893 74.5293 610.804 75.1458 610.804 75.7656C610.804 76.0203 610.819 78.2494 610.848 80.0586C610.858 80.6828 611.113 81.278 611.558 81.7159C612.004 82.1537 612.603 82.399 613.227 82.3988V82.3988C613.742 82.3987 614.243 82.2318 614.655 81.9229C615.067 81.6141 615.367 81.18 615.511 80.6859C615.074 81.0848 614.503 81.3055 613.911 81.3047V81.3047Z" fill="#F3A508"/>
<path d="M612.689 91.2029C612.242 91.0083 611.846 90.7125 611.533 90.3388C611.22 89.9652 610.998 89.5239 610.885 89.0498C610.772 88.5757 610.771 88.0818 610.881 87.6071C610.991 87.1323 611.211 86.6897 611.521 86.3142C611.161 86.5772 610.861 86.9139 610.641 87.3018C610.42 87.6897 610.285 88.1201 610.244 88.5642C610.203 89.0084 610.257 89.4562 610.402 89.878C610.547 90.2998 610.78 90.6859 611.086 91.0107C611.392 91.3355 611.763 91.5915 612.175 91.7618C612.587 91.9321 613.031 92.0128 613.477 91.9985C613.923 91.9842 614.361 91.8752 614.761 91.6788C615.162 91.4824 615.516 91.203 615.8 90.8593C615.357 91.1834 614.836 91.3856 614.29 91.4459C613.744 91.5062 613.192 91.4224 612.689 91.2029V91.2029Z" fill="#F3A508"/>
<path d="M249.873 748.745C250.705 749.55 252.033 749.528 252.838 748.696C253.643 747.863 253.621 746.535 252.788 745.73C251.956 744.925 250.628 744.947 249.823 745.78C249.018 746.613 249.04 747.94 249.873 748.745Z" fill="#2669F5"/>
<path d="M266.381 731.351C264.008 729.089 260.228 729.139 257.916 731.462C257.895 731.484 257.747 731.636 257.553 731.836C257.27 732.13 257.114 732.524 257.121 732.932C257.128 733.34 257.297 733.728 257.59 734.012L257.59 734.012C257.735 734.152 257.907 734.263 258.095 734.337C258.283 734.411 258.484 734.448 258.686 734.444C258.889 734.441 259.088 734.397 259.274 734.317C259.459 734.236 259.627 734.12 259.767 733.974C259.899 733.838 259.99 733.744 259.995 733.738C260.347 733.374 260.788 733.107 261.274 732.965C261.76 732.823 262.275 732.81 262.768 732.927C263.261 733.044 263.715 733.287 264.085 733.633C264.455 733.979 264.729 734.415 264.879 734.899C265.03 735.382 265.052 735.897 264.943 736.391C264.835 736.886 264.599 737.344 264.26 737.72C263.921 738.096 263.489 738.377 263.008 738.536C262.527 738.695 262.013 738.726 261.517 738.626L261.517 738.627C261.517 738.627 258.963 738.118 257.139 739.044L257.139 739.045C256.779 739.248 256.451 739.502 256.164 739.799C256.046 739.921 255.02 740.996 254.195 741.877C253.911 742.181 253.757 742.584 253.768 743C253.778 743.416 253.952 743.812 254.251 744.101L254.251 744.101C254.401 744.246 254.579 744.361 254.774 744.437C254.968 744.513 255.176 744.551 255.385 744.547C255.594 744.542 255.801 744.497 255.992 744.413C256.183 744.329 256.356 744.207 256.501 744.056C257.264 743.257 258.155 742.33 258.22 742.263C259.046 741.41 260.691 741.355 261.904 741.455C263.301 741.569 264.703 741.241 265.877 740.477C266.122 740.323 266.35 740.143 266.556 739.939C267.111 739.365 267.547 738.687 267.839 737.944C268.13 737.2 268.272 736.407 268.256 735.608C268.24 734.81 268.066 734.023 267.744 733.292C267.422 732.562 266.959 731.902 266.381 731.351V731.351Z" fill="#2669F5"/>
<path d="M258.408 733.79C258.115 733.507 257.946 733.118 257.939 732.71C257.932 732.302 258.088 731.908 258.371 731.615C258.565 731.415 258.713 731.262 258.734 731.241C259.406 730.565 260.23 730.058 261.136 729.764C259.909 729.976 258.778 730.565 257.899 731.448C257.878 731.47 257.73 731.622 257.537 731.822C257.253 732.116 257.098 732.51 257.104 732.918C257.111 733.326 257.28 733.714 257.573 733.998V733.998C257.814 734.231 258.125 734.379 258.458 734.419C258.79 734.459 259.127 734.39 259.417 734.221C259.039 734.207 258.68 734.054 258.408 733.79V733.79Z" fill="#F3A508"/>
<path d="M264.202 733.754C264.526 734.098 264.761 734.515 264.887 734.97C265.014 735.425 265.028 735.904 264.929 736.366C264.829 736.827 264.62 737.258 264.317 737.621C264.015 737.983 263.629 738.267 263.193 738.448C263.61 738.407 264.014 738.277 264.377 738.067C264.739 737.856 265.052 737.569 265.294 737.227C265.536 736.884 265.701 736.493 265.778 736.081C265.856 735.668 265.843 735.244 265.741 734.837C265.64 734.43 265.452 734.05 265.19 733.722C264.928 733.395 264.598 733.127 264.224 732.939C263.849 732.75 263.438 732.644 263.019 732.628C262.6 732.613 262.182 732.688 261.795 732.848C262.239 732.805 262.686 732.864 263.104 733.021C263.521 733.178 263.897 733.429 264.202 733.754V733.754Z" fill="#F3A508"/>
<path d="M255.069 743.88C254.77 743.59 254.596 743.195 254.586 742.779C254.575 742.363 254.729 741.959 255.013 741.656C255.838 740.775 256.864 739.7 256.982 739.578C257.269 739.281 257.597 739.026 257.957 738.823L257.957 738.823C258.145 738.728 258.34 738.647 258.539 738.581C258.047 738.659 257.57 738.811 257.122 739.03L257.122 739.031C256.763 739.234 256.434 739.488 256.147 739.785C256.029 739.907 255.003 740.983 254.179 741.863C253.894 742.167 253.741 742.57 253.751 742.987C253.761 743.403 253.935 743.798 254.234 744.087V744.087C254.481 744.326 254.798 744.478 255.139 744.521C255.479 744.563 255.825 744.495 256.123 744.325C255.728 744.313 255.352 744.154 255.069 743.88V743.88Z" fill="#F3A508"/>
<path d="M249.896 748.057C249.772 747.756 249.72 747.431 249.743 747.107C249.766 746.783 249.864 746.469 250.03 746.189C250.195 745.909 250.423 745.672 250.696 745.496C250.969 745.319 251.279 745.209 251.602 745.173C251.308 745.132 251.008 745.154 250.723 745.238C250.437 745.322 250.173 745.465 249.947 745.659C249.722 745.853 249.54 746.093 249.414 746.362C249.288 746.631 249.221 746.924 249.217 747.222C249.213 747.519 249.272 747.814 249.391 748.087C249.51 748.359 249.685 748.604 249.905 748.803C250.126 749.003 250.386 749.154 250.669 749.245C250.952 749.337 251.251 749.367 251.547 749.334C251.184 749.284 250.841 749.139 250.551 748.915C250.262 748.691 250.036 748.395 249.896 748.057V748.057Z" fill="#F3A508"/>
<path d="M634.67 388.336C635.489 387.517 635.489 386.189 634.67 385.37C633.851 384.551 632.523 384.551 631.704 385.37C630.885 386.189 630.885 387.517 631.704 388.336C632.523 389.155 633.851 389.155 634.67 388.336Z" fill="#2669F5"/>
<path d="M617.554 371.538C615.253 373.872 615.239 377.653 617.523 380.003C617.544 380.025 617.695 380.176 617.892 380.372C618.18 380.661 618.571 380.823 618.979 380.823C619.387 380.823 619.779 380.661 620.067 380.372L620.067 380.372C620.21 380.229 620.324 380.06 620.401 379.873C620.478 379.686 620.518 379.486 620.518 379.283C620.518 379.081 620.478 378.881 620.4 378.694C620.323 378.507 620.209 378.337 620.066 378.195C619.932 378.061 619.839 377.968 619.834 377.963C619.475 377.605 619.217 377.159 619.083 376.671C618.949 376.182 618.944 375.668 619.069 375.177C619.195 374.686 619.446 374.236 619.798 373.872C620.15 373.508 620.59 373.241 621.076 373.099C621.562 372.957 622.077 372.943 622.57 373.06C623.063 373.177 623.517 373.42 623.887 373.766C624.257 374.111 624.531 374.547 624.682 375.031C624.833 375.514 624.855 376.029 624.747 376.524L624.747 376.524C624.747 376.524 624.196 379.069 625.091 380.908L625.092 380.908C625.289 381.271 625.537 381.604 625.83 381.895C625.95 382.016 627.008 383.059 627.874 383.898C628.173 384.188 628.574 384.348 628.99 384.345C629.406 384.341 629.805 384.175 630.099 383.88L630.099 383.88C630.247 383.732 630.364 383.557 630.444 383.363C630.523 383.17 630.564 382.963 630.563 382.754C630.563 382.544 630.521 382.338 630.44 382.145C630.359 381.952 630.241 381.777 630.092 381.63C629.306 380.854 628.394 379.947 628.328 379.881C627.488 379.041 627.462 377.395 627.582 376.184C627.72 374.789 627.415 373.382 626.671 372.195C626.521 371.947 626.344 371.716 626.144 371.507C625.579 370.943 624.909 370.495 624.17 370.191C623.432 369.887 622.641 369.732 621.843 369.735C621.044 369.738 620.254 369.898 619.518 370.208C618.782 370.517 618.115 370.97 617.554 371.538V371.538Z" fill="#2669F5"/>
<path d="M619.86 379.551C619.571 379.839 619.18 380.001 618.772 380.001C618.364 380.001 617.973 379.839 617.684 379.551C617.487 379.354 617.337 379.203 617.316 379.182C616.651 378.499 616.159 377.667 615.88 376.755C616.071 377.986 616.641 379.127 617.509 380.02C617.53 380.042 617.681 380.192 617.878 380.389C618.166 380.677 618.557 380.839 618.965 380.839C619.373 380.839 619.765 380.677 620.053 380.389V380.389C620.29 380.152 620.443 379.844 620.489 379.512C620.535 379.18 620.471 378.842 620.308 378.549C620.287 378.927 620.128 379.284 619.86 379.551V379.551Z" fill="#F3A508"/>
<path d="M619.92 373.757C620.27 373.439 620.691 373.211 621.148 373.092C621.605 372.973 622.084 372.967 622.544 373.074C623.004 373.181 623.431 373.398 623.789 373.706C624.146 374.015 624.424 374.405 624.597 374.845C624.563 374.427 624.44 374.021 624.235 373.654C624.031 373.288 623.75 372.971 623.411 372.723C623.072 372.475 622.684 372.304 622.274 372.22C621.863 372.136 621.438 372.141 621.03 372.236C620.621 372.331 620.238 372.512 619.906 372.769C619.574 373.025 619.301 373.35 619.106 373.721C618.911 374.093 618.798 374.502 618.775 374.921C618.753 375.339 618.821 375.758 618.975 376.148C618.939 375.704 619.005 375.257 619.169 374.842C619.333 374.428 619.59 374.056 619.92 373.757V373.757Z" fill="#F3A508"/>
<path d="M629.891 383.058C629.597 383.353 629.199 383.52 628.783 383.523C628.367 383.526 627.966 383.366 627.667 383.077C626.8 382.237 625.742 381.194 625.622 381.074C625.33 380.782 625.081 380.449 624.884 380.086L624.884 380.086C624.792 379.897 624.715 379.7 624.651 379.5C624.722 379.993 624.865 380.473 625.077 380.924L625.078 380.924C625.275 381.287 625.523 381.62 625.816 381.912C625.936 382.032 626.994 383.076 627.86 383.915C628.159 384.204 628.56 384.365 628.976 384.361C629.392 384.358 629.791 384.191 630.085 383.896V383.896C630.327 383.654 630.485 383.339 630.533 382.999C630.582 382.659 630.519 382.313 630.354 382.012C630.336 382.406 630.171 382.78 629.891 383.058V383.058Z" fill="#F3A508"/>
<path d="M633.981 388.301C633.679 388.42 633.353 388.467 633.029 388.438C632.706 388.409 632.393 388.306 632.116 388.136C631.839 387.966 631.606 387.733 631.434 387.458C631.262 387.182 631.157 386.87 631.126 386.546C631.081 386.84 631.098 387.14 631.177 387.427C631.256 387.714 631.395 387.98 631.585 388.209C631.775 388.438 632.011 388.624 632.279 388.754C632.546 388.885 632.838 388.957 633.135 388.966C633.432 388.975 633.728 388.92 634.003 388.806C634.277 388.692 634.524 388.521 634.728 388.304C634.931 388.087 635.086 387.829 635.183 387.548C635.279 387.267 635.314 386.968 635.286 386.672C635.23 387.034 635.08 387.374 634.851 387.66C634.622 387.946 634.322 388.167 633.981 388.301V388.301Z" fill="#F3A508"/>
<path d="M269.894 21.8916C270.095 20.751 269.334 19.6633 268.193 19.4622C267.052 19.261 265.965 20.0227 265.764 21.1633C265.562 22.3039 266.324 23.3916 267.465 23.5927C268.605 23.7938 269.693 23.0322 269.894 21.8916Z" fill="#2669F5"/>
<path d="M246.239 17.9488C245.693 21.1805 247.85 24.2858 251.069 24.9008C251.099 24.9064 251.309 24.9436 251.583 24.9919C251.985 25.0627 252.398 24.971 252.732 24.737C253.066 24.503 253.294 24.1458 253.365 23.744L253.365 23.744C253.4 23.5448 253.396 23.3407 253.352 23.1433C253.308 22.9458 253.226 22.7589 253.109 22.5933C252.993 22.4277 252.846 22.2866 252.675 22.1781C252.504 22.0695 252.314 21.9957 252.115 21.9607C251.928 21.928 251.799 21.9053 251.791 21.9039C251.293 21.8161 250.825 21.5999 250.435 21.2766C250.045 20.9534 249.746 20.5342 249.568 20.0603C249.389 19.5864 249.336 19.0741 249.416 18.5739C249.495 18.0736 249.703 17.6026 250.02 17.2072C250.336 16.8117 250.75 16.5055 251.221 16.3186C251.692 16.1317 252.203 16.0705 252.704 16.1412C253.206 16.2118 253.68 16.4118 254.081 16.7214C254.482 17.0311 254.795 17.4398 254.99 17.9072L254.991 17.9068C254.991 17.9068 255.999 20.3079 257.788 21.3011L257.788 21.3006C258.157 21.4849 258.552 21.6149 258.959 21.6864C259.126 21.7159 260.591 21.9641 261.782 22.1545C262.193 22.2201 262.614 22.1215 262.953 21.88C263.292 21.6385 263.522 21.2734 263.594 20.8635L263.594 20.8635C263.631 20.6575 263.626 20.4464 263.58 20.2423C263.535 20.0382 263.449 19.8451 263.329 19.6742C263.208 19.5032 263.055 19.3578 262.878 19.2462C262.701 19.1347 262.504 19.0592 262.298 19.0242C261.209 18.839 259.942 18.6192 259.85 18.603C258.68 18.3968 257.714 17.0633 257.118 16.0027C256.431 14.7815 255.374 13.8034 254.084 13.2578C253.819 13.1408 253.542 13.0532 253.258 12.9965C252.472 12.8579 251.666 12.8762 250.886 13.0504C250.107 13.2247 249.37 13.5513 248.718 14.0117C248.065 14.472 247.511 15.0569 247.085 15.7326C246.66 16.4083 246.372 17.1615 246.239 17.9488V17.9488Z" fill="#2669F5"/>
<path d="M252.724 23.19C252.653 23.5918 252.425 23.949 252.091 24.183C251.757 24.417 251.343 24.5087 250.942 24.4378C250.667 24.3895 250.458 24.3524 250.428 24.3467C249.492 24.1685 248.612 23.7695 247.86 23.1829C248.723 24.0811 249.844 24.689 251.067 24.9224C251.097 24.928 251.307 24.9652 251.581 25.0135C251.983 25.0843 252.396 24.9926 252.73 24.7586C253.064 24.5246 253.292 24.1674 253.363 23.7656V23.7656C253.421 23.4354 253.37 23.0953 253.217 22.7969C253.064 22.4985 252.818 22.2581 252.516 22.1123C252.716 22.4336 252.79 22.8175 252.724 23.19V23.19Z" fill="#F3A508"/>
<path d="M249.45 18.409C249.554 17.9484 249.768 17.52 250.075 17.1605C250.381 16.8009 250.77 16.5211 251.208 16.3449C251.646 16.1688 252.12 16.1016 252.59 16.1492C253.06 16.1967 253.511 16.3576 253.905 16.618C253.638 16.2947 253.304 16.0329 252.926 15.8503C252.549 15.6678 252.136 15.5688 251.717 15.5602C251.297 15.5516 250.881 15.6335 250.496 15.8003C250.111 15.9671 249.767 16.215 249.487 16.527C249.206 16.839 248.996 17.2077 248.871 17.6082C248.746 18.0086 248.709 18.4312 248.763 18.8473C248.816 19.2634 248.958 19.6631 249.18 20.0192C249.401 20.3753 249.697 20.6794 250.047 20.9108C249.763 20.5673 249.561 20.1631 249.457 19.7294C249.354 19.2957 249.351 18.8439 249.45 18.409V18.409Z" fill="#F3A508"/>
<path d="M262.953 20.3094C262.881 20.7193 262.651 21.0844 262.312 21.3259C261.973 21.5675 261.552 21.6661 261.141 21.6004C259.95 21.41 258.485 21.1618 258.318 21.1323C257.911 21.0608 257.516 20.9309 257.147 20.7465L257.146 20.747C256.962 20.6442 256.786 20.5282 256.62 20.3998C256.96 20.7636 257.353 21.0747 257.785 21.3226L257.786 21.3221C258.155 21.5065 258.55 21.6365 258.957 21.7079C259.124 21.7374 260.589 21.9856 261.78 22.1761C262.191 22.2417 262.612 22.1431 262.951 21.9016C263.29 21.66 263.52 21.2949 263.592 20.885V20.885C263.652 20.5471 263.6 20.1989 263.445 19.8928C263.29 19.5866 263.04 19.339 262.732 19.1871C262.943 19.5205 263.022 19.9208 262.953 20.3094V20.3094Z" fill="#F3A508"/>
<path d="M269.31 22.2578C269.131 22.5287 268.891 22.7541 268.609 22.9163C268.328 23.0785 268.012 23.1731 267.688 23.1925C267.363 23.212 267.039 23.1558 266.74 23.0283C266.441 22.9009 266.176 22.7058 265.965 22.4583C266.096 22.7253 266.283 22.9613 266.512 23.1508C266.741 23.3403 267.008 23.4789 267.295 23.5573C267.582 23.6358 267.882 23.6523 268.176 23.6059C268.469 23.5594 268.75 23.451 268.998 23.2879C269.247 23.1247 269.458 22.9106 269.618 22.6596C269.777 22.4087 269.882 22.1267 269.924 21.8323C269.966 21.5379 269.945 21.238 269.862 20.9523C269.78 20.6666 269.638 20.4018 269.445 20.1753C269.606 20.504 269.679 20.8691 269.655 21.2345C269.631 21.5999 269.513 21.9527 269.31 22.2578V22.2578Z" fill="#F3A508"/>
</svg>
